<?xml version="1.0" encoding="utf-8"?>
<!-- Generator: Adobe Illustrator 24.0.0, SVG Export Plug-In . SVG Version: 6.00 Build 0)  -->
<svg version="1.1" id="Capa_1" xmlns="http://www.w3.org/2000/svg" xmlns:xlink="http://www.w3.org/1999/xlink" x="0px" y="0px"
	 viewBox="0 0 800 800" style="enable-background:new 0 0 800 800;" xml:space="preserve">
<style type="text/css">
	.st0{fill:#D13834;}
	.st1{fill:#F75B57;}
	.st2{fill:#4C312C;}
	.st3{fill:#994530;}
	.st4{fill:#659C35;}
</style>
<g>
	<path class="st0" d="M442.4,236.6c-27.8,6.9-57,6.9-84.8,0c-145-35.9-266.4-22.1-265,251.3C93.3,628,224.5,809.6,362.3,778.5
		c24.7-5.6,50.6-5.6,75.3,0c137.9,31.1,269-150.5,269.7-290.6C708.8,214.5,587.4,200.7,442.4,236.6z"/>
	<path class="st1" d="M160,418c-7.5,0-13.5-6-13.5-13.5c0-74.3,54.4-134.8,121.3-134.8c7.5,0,13.5,6,13.5,13.5s-6,13.5-13.5,13.5
		c-52,0-94.4,48.4-94.4,107.8C173.5,412,167.4,418,160,418z"/>
	<path class="st2" d="M399,287.6c-7.2,0-13.2-5.8-13.5-13c-1.8-57.1-23.7-128.7-79.8-158.6c-6.6-3.5-9.1-11.7-5.6-18.2
		c3.5-6.6,11.6-9.1,18.3-5.6c66.2,35.3,92,116.9,94.1,181.5c0.2,7.4-5.6,13.7-13,13.9C399.3,287.6,399.2,287.6,399,287.6z"/>
	<path class="st3" d="M397.8,336c-22.6,0-44-8.8-60-24.9c-5.3-5.3-5.3-13.8,0-19.1c5.3-5.3,13.8-5.3,19.1,0
		c10.9,10.9,25.5,17,40.9,17c15.4,0,30-6,40.9-17c5.3-5.3,13.8-5.3,19.1,0c5.3,5.3,5.3,13.8,0,19.1C441.8,327.2,420.5,336,397.8,336
		z"/>
	<path class="st4" d="M386.1,193.8l8.2-55.1C403,80.5,448.6,34.9,506.8,26.2l55.1-8.2l-8.2,55.1c-8.7,58.2-54.3,103.8-112.5,112.5
		L386.1,193.8z"/>
</g>
</svg>
