<?xml version="1.0" encoding="utf-8"?>
<!-- Generator: Adobe Illustrator 24.0.0, SVG Export Plug-In . SVG Version: 6.00 Build 0)  -->
<svg version="1.1" id="Layer_1" xmlns="http://www.w3.org/2000/svg" xmlns:xlink="http://www.w3.org/1999/xlink" x="0px" y="0px"
	 viewBox="0 0 800 800" style="enable-background:new 0 0 800 800;" xml:space="preserve">
<style type="text/css">
	.st0{fill:#FFECB3;}
	.st1{fill:#BBDEFB;}
	.st2{fill:#FFB300;}
	.st3{fill:#FFD54F;}
	.st4{fill:#FFE082;}
	.st5{fill:#FFF8E1;}
	.st6{fill:#FFFDF0;}
</style>
<path class="st0" d="M135.4,153.5c0,58.5,47.4,105.9,105.9,105.9S347.1,212,347.1,153.5S299.7,47.6,241.2,47.6S135.4,95,135.4,153.5
	z"/>
<path class="st0" d="M276.5,127c0,53.6,43.4,97,97,97.1c53.6,0,97-43.4,97.1-97c0,0,0,0,0-0.1c0-53.6-43.4-97-97-97
	S276.5,73.4,276.5,127L276.5,127z"/>
<path class="st0" d="M435.3,144.7c0,34.1,27.6,61.8,61.7,61.8s61.8-27.6,61.8-61.7c0,0,0,0,0-0.1c0-34.1-27.6-61.8-61.7-61.8
	C463,82.9,435.3,110.5,435.3,144.7C435.3,144.6,435.3,144.7,435.3,144.7z"/>
<path class="st0" d="M382.4,215.2c0,34.1,27.6,61.7,61.7,61.7s61.7-27.6,61.7-61.7c0-34.1-27.6-61.8-61.7-61.8
	C410,153.5,382.4,181.1,382.4,215.2C382.4,215.2,382.4,215.2,382.4,215.2L382.4,215.2z"/>
<path class="st0" d="M82.4,162.3c0,24.4,19.7,44.1,44.1,44.1c24.4,0,44.1-19.7,44.1-44.1c0,0,0,0,0,0c0-24.4-19.7-44.1-44.1-44.1
	C102.2,118.2,82.4,137.9,82.4,162.3C82.4,162.3,82.4,162.3,82.4,162.3z"/>
<path class="st0" d="M505.8,162.3c0,24.4,19.7,44.1,44.1,44.1c24.4,0,44.1-19.7,44.1-44.1s-19.7-44.1-44.1-44.1
	C525.6,118.2,505.8,138,505.8,162.3z"/>
<path class="st1" d="M550.1,665.1c-53.6-0.1-97-43.5-97-97V374c0-5.1-0.1-9.1-0.1-12.3c-0.2-11.2-0.3-20.8,8.2-29.5l7.8-7.9
	l11.7-0.2c7.3,0,12.5,2.8,15.3,4.3l0.4,0.2c24.8-14.7,92-51.6,142-51.6c79.4,0,79.4,60.7,79.4,97c-1,17.7-9.2,160.7-18.3,200
	c-13.2,57-49.2,91.1-96.3,91.1L550.1,665.1L550.1,665.1z M506,382.8v185.2c0,24.3,19.8,44.1,44.1,44.1l52.9,0
	c28.9,0,40.5-31.4,44.8-50.1c6.8-29.6,14.6-146.9,17-189.6c0-42.6-2-42.6-26.5-42.6c-37,0-102.5,36.2-122.6,48.9l-6.5,4.1H506z
	 M117.7,682.8V718c0,19.5,15.8,35.3,35.3,35.3h0h370.5c19.5,0,35.3-15.8,35.3-35.3c0,0,0,0,0,0v-35.3H117.7z"/>
<path class="st2" d="M117.7,188.8h441.1v494H117.7V188.8z"/>
<path class="st3" d="M117.7,188.8h441.1v141.1H117.7V188.8z"/>
<path class="st0" d="M382.4,462.2c0,14.6,11.8,26.5,26.5,26.5c14.6,0,26.5-11.8,26.5-26.5s-11.8-26.5-26.5-26.5
	C394.2,435.8,382.4,447.6,382.4,462.2z"/>
<path class="st4" d="M417.6,568.1c0,14.6,11.8,26.5,26.5,26.5s26.5-11.8,26.5-26.5c0-14.6-11.8-26.5-26.5-26.5
	S417.6,553.5,417.6,568.1z"/>
<path class="st5" d="M470.6,418.1c0,9.7,7.9,17.6,17.6,17.6c9.7,0,17.6-7.9,17.6-17.6s-7.9-17.6-17.6-17.6
	C478.5,400.5,470.6,408.4,470.6,418.1z"/>
<path class="st6" d="M230.6,321.8c9.8-51.1,9.8-106.6-36.4-133.1c29.4-35.3,117.6-35.3,147.4,0c-51.3,29.3-45.7,94.6-32.9,149.7
	c10.3,28.7,16.8,54.6,19.3,71.1l0.1,0.6c0.7,4.8,1.2,9.1,1.2,11.9c0,33.9-27.5,61.4-61.4,61.4c-33.9,0-61.4-27.5-61.4-61.4
	c0-2.6,0.4-6.4,1-10.6C210,391.7,218.7,361.7,230.6,321.8z"/>
<path class="st6" d="M362.9,188.8c-9.7-47.7-56.3-78.5-104.1-68.8c-34.6,7.1-61.7,34.1-68.8,68.8H362.9L362.9,188.8z"/>
<path class="st6" d="M434.4,188.8c4.9-23.9-10.5-47.2-34.4-52c-23.9-4.9-47.2,10.5-52,34.4c-1.2,5.8-1.2,11.8,0,17.6H434.4z"/>
</svg>
