<?xml version="1.0" encoding="utf-8"?>
<!-- Generator: Adobe Illustrator 24.0.0, SVG Export Plug-In . SVG Version: 6.00 Build 0)  -->
<svg version="1.1" id="Layer_1" xmlns="http://www.w3.org/2000/svg" xmlns:xlink="http://www.w3.org/1999/xlink" x="0px" y="0px"
	 viewBox="0 0 800 800" style="enable-background:new 0 0 800 800;" xml:space="preserve">
<style type="text/css">
	.st0{fill:#5C913B;}
	.st1{fill:#77B255;}
	.st2{fill:#5864B7;}
	.st3{fill:#334372;}
	.st4{fill:#AA8DD8;}
	.st5{fill:#253356;}
</style>
<path class="st0" d="M607.8,22.6c0,0-130.1,13.7-189.6,90.1c-71.2,91.4-19.8,176.8-19.8,176.8s107.1-9.4,156.1-70.1
	C625.6,131.3,607.8,22.6,607.8,22.6z"/>
<path class="st1" d="M301.2,22.6c0,0-20.3,102.5,22.3,165.8c50.9,75.7,126,56.4,126,56.4s18-84-15.3-135.6
	C385.7,34.4,301.2,22.6,301.2,22.6z"/>
<ellipse class="st2" cx="260.4" cy="256.5" rx="153.5" ry="133.8"/>
<path class="st3" d="M358,377.7c0-18.9,2.8-36.4,7.5-52.7c-28.5-9.5-58.4-14.3-88.4-14.2c-50.2,0-96.7,12.2-134.8,34.7
	c27.5,35.6,74.5,54.5,128,54.5c32.8,0,62.9-7.3,87.8-21.1C358.1,378.5,358,378.1,358,377.7z"/>
<path class="st3" d="M304.3,368c0,6,0.4,11.8,0.9,17.5c63-14,108.8-58.6,108.8-129c0-17.3-2.9-32.9-8-47
	C345.4,237.1,304.3,292.5,304.3,368L304.3,368z"/>
<ellipse class="st2" cx="545.6" cy="368" rx="197.4" ry="178.4"/>
<path class="st3" d="M545.6,535.2c0-117.2-83.3-193.4-192.9-208.8c-2.9,13.1-4.6,26.9-4.6,41.6c0,110.6,88.1,178.1,196.9,178.4
	C545.2,542.6,545.6,539,545.6,535.2z"/>
<ellipse transform="matrix(0.866 -0.5 0.5 0.866 -185.643 263.4338)" class="st4" cx="398.8" cy="478.1" rx="55.5" ry="56.1"/>
<ellipse class="st2" cx="289.2" cy="557.5" rx="234.4" ry="211.8"/>
<path class="st3" d="M409,438.8c-15.6-27.3-37.7-13.1-64-30.3c-21.1-13.9-24-34.9-46.2-34.9s-35.6,18.5-48.1,23.1
	c-29.5,10.9-47-5.1-69.2,17.1s17.1,42.2,20.4,59.3c4.2,21.8-23.1,37.6-4,48.1c27.5,15.2,34.4-12.3,78.7-10.2
	c33.3,1.6,46.5,33.9,75.5,24c29.7-10.1-10.5-38.9,7.3-57.4C381.4,455.1,419.6,457.2,409,438.8L409,438.8z M650.4,261.4
	c-9.9-23-23.6-9.7-42.9-25.8c-15.5-12.9-15.8-29.9-33.4-31.9c-17.6-2-29.9,11.4-40.2,13.9c-24.3,5.9-41.7-1.8-56.4,7.3
	c-21.3,13.2,3.1,29.1,4.1,43c1.4,17.6-15,33.5-0.8,43.6c20.4,14.5,33.1-3.9,68.1,1.8c26.3,4.3,28.2,23,52.1,17.8
	c24.5-5.3,3.4-29.2,19.1-42.2C639.4,273.1,657.1,277,650.4,261.4L650.4,261.4z M245.9,148.7c-18.4-6.6-18.2,8.4-37.6,10.9
	c-15.6,2-25.5-6.8-36.1,2.2c-10.5,9-9.3,23.2-13.4,30.5c-9.5,17.1-23.2,23-25.8,36.2c-3.8,19.2,18.3,13.7,26.9,20.5
	c10.8,8.6,11.3,26.4,24.6,23.7c19.2-4,15.4-21,37.3-38.1c16.4-12.8,28.2-3.9,37.9-20.4c9.9-16.9-15-17.4-14-33.4
	C246.8,161.2,258.4,153.1,245.9,148.7L245.9,148.7z"/>
<ellipse class="st5" cx="284.2" cy="448.4" rx="83.4" ry="53"/>
<ellipse class="st5" cx="555.3" cy="265.6" rx="62.6" ry="39.8"/>
<ellipse transform="matrix(0.6446 -0.7645 0.7645 0.6446 -88.5791 222.1412)" class="st5" cx="194.6" cy="206.3" rx="45.2" ry="28.7"/>
</svg>
