<?xml version="1.0" encoding="utf-8"?>
<!-- Generator: Adobe Illustrator 24.0.0, SVG Export Plug-In . SVG Version: 6.00 Build 0)  -->
<svg version="1.1" id="Layer_1" xmlns="http://www.w3.org/2000/svg" xmlns:xlink="http://www.w3.org/1999/xlink" x="0px" y="0px"
	 viewBox="0 0 800 800" style="enable-background:new 0 0 800 800;" xml:space="preserve">
<style type="text/css">
	.st0{fill:#558B2F;}
	.st1{fill:#33691E;}
	.st2{fill:#7CB342;}
	.st3{fill:#689F38;}
	.st4{fill:#9CCC65;}
	.st5{fill:#AED581;}
	.st6{fill:#8BC34A;}
	.st7{fill:#DCEDC8;}
</style>
<path class="st0" d="M362.6,773.9c-35.5,0-67.3-18.7-84.1-41.1c-37.4,5.6-84.1-3.7-104.7-33.7c-33.7-44.9-22.4-93.5-15-114.1
	c0-1.9,1.9-3.7,1.9-3.7l52.4-78.5c3.7-7.5,13.1-9.3,20.6-7.5l230,89.8c9.3,1.9,13.1,11.2,13.1,20.6l-22.4,121.5
	c0,3.7-1.9,5.6-3.7,7.5c-1.9,1.9-26.2,33.7-76.7,37.4C370.1,773.9,366.3,773.9,362.6,773.9L362.6,773.9z"/>
<path class="st1" d="M409.3,717.8c-9.3-11.2-16.8-24.3-20.6-37.4c-1.9-3.7-1.9-7.5-3.7-11.2c-1.9-3.7-3.7-13.1-7.5-28
	c-13.1-1.9-26.2-5.6-39.3-11.2c-3.7-1.9-5.6-1.9-9.3-3.7l-11.2-5.6c-3.7-1.9-5.6-1.9-9.3-3.7c-13.1-5.6-24.3-13.1-35.5-20.6
	c-11.2,7.5-24.3,13.1-37.4,15h-3.7c-5.6,1.9-18.7,3.7-33.7,3.7c-13.1,0-29.9-1.9-44.9-7.5c33.7,41.1,72.9,43,89.8,39.3
	c9.3-1.9,18.7-3.7,28-9.3c22.4,15,48.6,26.2,76.7,33.7c1.9,3.7,1.9,5.6,1.9,9.3c11.2,35.5,50.5,67.3,91.6,63.6
	C428,738.4,418.7,729,409.3,717.8z"/>
<path class="st2" d="M198,613.1c-29.9,0-72.9-7.5-101-46.7c-18.7-28-22.4-78.5-5.6-112.2c-31.8-28-61.7-87.9-41.1-149.6
	c18.7-58,71.1-84.1,106.6-93.5c0-28,7.5-61.7,35.5-89.8C241,70.9,304.6,83.9,308.4,83.9c9.3,1.9,15,11.2,13.1,20.6l7.5,439.4
	c-1.9,7.5-48.6,59.8-93.5,67.3C235.4,609.4,218.6,613.1,198,613.1L198,613.1z"/>
<path class="st3" d="M729.1,474.7c-28,28-67.3,29.9-89.8,26.2c15-31.8,22.4-65.4,22.4-101c0-134.6-108.4-243.1-243.1-243.1
	c-54.2,0-102.8,16.8-142.1,46.7c-9.3-11.2-15-29.9-16.8-43v-1.9v-7.5c0-5.6,0-11.2,1.9-16.8v-1.9c1.9-5.6,1.9-11.2,3.7-15
	c0,0,0-1.9,1.9-1.9c1.9-5.6,3.7-9.3,7.5-15v-1.9c3.7-5.6,7.5-9.3,11.2-15c-20.6,9.3-59.8,33.7-65.4,69.2c0,18.7,1.9,33.7,5.6,44.9
	c-54.2,48.6-87.9,121.5-87.9,201.9c0,84.1,37.4,158.9,95.4,209.4h3.7c13.1-1.9,24.3-7.5,37.4-15c29.9,22.4,65.4,37.4,104.7,44.9
	c3.7,15,7.5,26.2,7.5,28c11.2,41.1,39.3,72.9,74.8,84.1c9.3,1.9,20.6,3.7,31.8,3.7c20.6,0,44.9-5.6,61.7-16.8
	c26.2,9.3,71.1,11.2,102.8-7.5s50.5-65.4,44.9-101c28-15,44.9-37.4,52.4-65.4C760.8,534.6,751.5,497.2,729.1,474.7z"/>
<path class="st0" d="M639.3,500.9c-29.9,65.4-89.8,115.9-160.8,134.6h-1.9c-9.3,1.9-16.8,3.7-26.2,5.6h-1.9
	c-11.2,1.9-20.6,1.9-29.9,1.9c-7.5,0-15,0-22.4-1.9c-3.7,0-9.3-1.9-13.1-1.9h-7.5c3.7,15,7.5,26.2,7.5,28c1.9,3.7,1.9,7.5,3.7,11.2
	c11.2,1.9,20.6,1.9,31.8,1.9c102.8,0,192.6-56.1,241.2-138.4c26.2-1.9,59.8-26.2,69.2-65.4c-3.7,3.7-7.5,5.6-11.2,9.3
	C691.7,502.8,659.9,502.8,639.3,500.9L639.3,500.9z"/>
<path class="st4" d="M605.7,474.7c-18.7-7.5-65.4,1.9-86,44.9c-29.9-26.2-76.7-9.3-95.4,16.8c-7.5-24.3-28-104.7-117.8-82.3
	L179.3,443C199.9,557,299,643,418.7,643c110.3,0,201.9-72.9,231.9-173.9L605.7,474.7z"/>
<path class="st2" d="M345.8,452.3c-3.7,16.8-9.3,31.8-20.6,41.1c-18.7,15-46.7,20.6-52.4,18.7c-9.3,11.2-22.4,20.6-35.5,24.3
	c-5.6,1.9-11.2,1.9-18.7,1.9c-9.3-13.1-16.8-26.2-22.4-41.1c7.5,1.9,15,3.7,22.4,3.7c3.7,0,5.6,0,7.5-1.9
	c13.1-3.7,24.3-18.7,29.9-33.7c9.3,5.6,20.6,11.2,35.5,11.2c7.5,0,15-1.9,24.3-5.6c7.5-3.7,15-11.2,20.6-20.6
	C338.3,452.3,342,452.3,345.8,452.3L345.8,452.3z M587,472.9c-5.6,0-11.2,1.9-16.8,3.7c7.5,26.2,28,50.5,50.5,58
	c7.5-11.2,13.1-22.4,18.7-33.7C618.7,497.2,600,487.8,587,472.9L587,472.9z"/>
<path class="st5" d="M734.7,340.1c26.2-44.9,28-102.8,0-140.2c-22.4-31.8-59.8-48.6-101-46.7c1.9-48.6-26.2-101-108.4-123.4
	c-31.8-7.5-78.5,0-110.3,28c-35.5-20.6-93.5-9.3-121.5,15c-24.3,22.4-37.4,48.6-35.5,78.5c0,13.1,5.6,39.3,16.8,52.4
	c-59.8,43-99.1,115.9-99.1,196.3c0,35.5,7.5,67.3,20.6,97.2c9.3,3.7,22.4,5.6,31.8,3.7c13.1-3.7,24.3-18.7,29.9-33.7
	c13.1,7.5,33.7,16.8,59.8,5.6c16.8-7.5,31.8-35.5,28-52.4c41.1,31.8,123.4-15,93.5-93.5l37.4-93.5l-28-72.9c-3.7,0-7.5,0-11.2-1.9
	c125.3,9.3,224.4,114.1,224.4,243.1c0,35.5-7.5,71.1-22.4,101c26.2,1.9,71.1,1.9,99.1-37.4c15-20.6,18.7-61.7,11.2-91.6
	C745.9,358.8,742.2,347.6,734.7,340.1L734.7,340.1z"/>
<path class="st6" d="M418.7,119.5c-58,0-112.2,18.7-157.1,48.6c1.9,13.1,7.5,26.2,15,35.5c13.1-9.3,26.2-16.8,41.1-24.3
	c-5.6,28-1.9,56.1,11.2,80.4c13.1,22.4,33.7,39.3,58,48.6c0,9.3-3.7,37.4,22.4,61.7c9.3,7.5,18.7,13.1,29.9,16.8
	c1.9-5.6,5.6-13.1,5.6-20.6l-7.5-7.5c-16.8-22.4-16.8-54.2-5.6-80.4H428c-56.1,0-99.1-56.1-65.4-115.9h-1.9
	c18.7-3.7,37.4-7.5,58-7.5c134.6,0,243.1,108.4,243.1,243.1c0,35.5-7.5,71.1-22.4,101c11.2,1.9,26.2,1.9,41.1-1.9
	c11.2-31.8,18.7-65.4,18.7-101C699.1,244.8,572,119.5,418.7,119.5z"/>
<path class="st7" d="M661.7,399.9c0-134.6-108.4-243.1-243.1-243.1c-18.7,0-37.4,1.9-56.1,7.5c-33.7,59.8,11.2,117.8,69.2,115.9
	c-11.2,26.2-11.2,58,5.6,80.4c16.8,22.4,48.6,24.3,76.7,22.4c-3.7,15-1.9,41.1,9.3,50.5c11.2,9.3,35.5,9.3,46.7,5.6
	c9.3,37.4,39.3,58,69.2,63.6C652.4,471,661.8,435.5,661.7,399.9L661.7,399.9z"/>
<path class="st5" d="M530.9,184.9l9.3,11.2l11.2,15c0,0,1.9,1.9,3.7,5.6c1.9,1.9,1.9,3.7,3.7,7.5c1.9,1.9,1.9,3.7,3.7,7.5
	c1.9,1.9,1.9,5.6,3.7,9.3c1.9,3.7,1.9,7.5,1.9,11.2v13.1c0,3.7,0,9.3-1.9,13.1c-3.7,18.7-13.1,35.5-22.4,46.7
	c-9.3,11.2-16.8,18.7-16.8,18.7s9.3-5.6,20.6-15c11.2-9.3,26.2-26.2,35.5-44.9c1.9-5.6,3.7-9.3,5.6-15c1.9-5.6,1.9-11.2,3.7-16.8
	v-15v-1.9C575.7,214.8,555.2,198,530.9,184.9L530.9,184.9z"/>
</svg>
