<?xml version="1.0" encoding="utf-8"?>
<!-- Generator: Adobe Illustrator 24.0.0, SVG Export Plug-In . SVG Version: 6.00 Build 0)  -->
<svg version="1.1" id="Layer_1" xmlns="http://www.w3.org/2000/svg" xmlns:xlink="http://www.w3.org/1999/xlink" x="0px" y="0px"
	 viewBox="0 0 800 800" style="enable-background:new 0 0 800 800;" xml:space="preserve">
<style type="text/css">
	.st0{fill:#FFE57F;}
	.st1{fill:#FFB300;}
	.st2{fill:#FFA000;}
	.st3{fill:#FFC400;}
</style>
<path class="st0" d="M685.9,363.5c0-44.3,35.3-80.2,79.3-81.4c-2.6-86.3-6.4-161.8-6.4-161.8c-328.3,27.1-659.1,94.2-659.1,94.2
	c-43.9,8.7-52.7,17.4-61.5,52.1c0,0-17.6,69.5,8.8,217.2s123.3,208.5,167,208.5c0,0,357.7,33.7,544.9,9.8c0,0,7.4-139.9,8.6-257
	C722.4,445.1,685.9,408.5,685.9,363.5z"/>
<path class="st1" d="M217.8,652.5l-1.9-0.2h-1.9c-20.3,0-103.7-43.9-127.2-175.6c-24.1-135-9.4-200.3-9.4-200.6
	c3.1-12.2,4.8-15.2,4.9-15.4c0.9-0.7,5.6-3.3,25.5-7.3c3.1-0.6,304.4-61.3,612.6-89.8l40.3-3.2c-1.1-24.7-1.9-40.2-1.9-40.2
	c-328.3,27.1-659.1,94.2-659.1,94.2c-43.9,8.7-52.7,17.4-61.5,52.1c0,0-17.6,69.5,8.8,217.2s123.3,208.5,167,208.5
	c0,0,195.2,18.4,372.7,18.4c62.7,0,123.3-2.3,172.2-8.5c0,0,0.8-16.1,2-41.8c-49,6.3-130.8,10.4-174.2,10.4
	C413.2,670.7,219.7,652.7,217.8,652.5z"/>
<path class="st2" d="M35.1,285.8c1.5-12.8,3.1-19.3,3.1-19.3c8.8-34.7,17.6-43.4,61.5-52.1c0,0,330.8-67.1,659.1-94.2
	c0,0-274.8-14-334.5-19.9c-59.7-5.8-111.9,0-141.3,9.1c-29.4,9.1-125.3,49.1-125.3,49.1C25.8,209.5,35.1,285.8,35.1,285.8
	L35.1,285.8z"/>
<path class="st3" d="M277.5,383.9c0,45.1,36.6,81.7,81.7,81.7c45.1,0,81.7-36.6,81.7-81.7c0-45.1-36.6-81.7-81.7-81.7
	C314.1,302.2,277.5,338.8,277.5,383.9z"/>
<path class="st3" d="M543,261.4c0,22.6,18.3,40.9,40.8,40.9c22.6,0,40.9-18.3,40.9-40.8c0,0,0,0,0-0.1c0-22.6-18.3-40.9-40.8-40.9
	S543,238.8,543,261.4C543,261.3,543,261.4,543,261.4z"/>
<path class="st3" d="M195.8,537.1c0,28.2,22.8,51.1,51,51.1c28.2,0,51.1-22.8,51.1-51c0,0,0,0,0,0c0-28.2-22.8-51.1-51-51.1
	C218.7,486,195.8,508.8,195.8,537.1C195.8,537,195.8,537.1,195.8,537.1z"/>
<path class="st3" d="M134.5,373.7c0,16.9,13.7,30.6,30.6,30.6c16.9,0,30.6-13.7,30.6-30.6c0-16.9-13.7-30.6-30.6-30.6
	C148.3,343.1,134.5,356.8,134.5,373.7z"/>
<path class="st3" d="M522.5,506.4c0,33.8,27.4,61.3,61.3,61.3c33.8,0,61.3-27.4,61.3-61.3s-27.4-61.3-61.3-61.3
	C550,445.2,522.5,472.6,522.5,506.4z"/>
</svg>
