<?xml version="1.0" encoding="utf-8"?>
<!-- Generator: Adobe Illustrator 24.0.0, SVG Export Plug-In . SVG Version: 6.00 Build 0)  -->
<svg version="1.1" id="Layer_1" xmlns="http://www.w3.org/2000/svg" xmlns:xlink="http://www.w3.org/1999/xlink" x="0px" y="0px"
	 viewBox="0 0 800 800" style="enable-background:new 0 0 800 800;" xml:space="preserve">
<style type="text/css">
	.st0{fill:#FF1744;}
	.st1{fill:#D50000;}
	.st2{fill:#FFCDD2;}
	.st3{fill:#795548;}
	.st4{fill:#4CAF50;}
</style>
<path class="st0" d="M747.2,509.8c-81.8-247.4-269.3-65.8-269.3-65.8s-25.9,2-55.9,12C358.2,394.1,238.5,432,238.5,432
	S17.1,358.2,43,605.5c12,105.7,93.8,173.5,207.5,173.5c57.8,0,107.7-18,143.6-47.9c59.8,53.9,147.6,63.8,235.4,23.9
	C737.2,707.2,781.1,611.5,747.2,509.8L747.2,509.8z"/>
<path class="st1" d="M513.8,625.5c-8-77.8,53.9-219.4,105.7-245.4c-71.8-2-141.6,63.8-141.6,63.8s-23.9,2-53.9,12c-2-2-4-2-6-2
	c27.9,25.9,45.9,73.8,37.9,151.6c-6,51.9-27.9,93.8-61.8,123.7c29.9,27.9,101.7,79.8,235.4,25.9
	C567.6,743.2,521.8,703.3,513.8,625.5L513.8,625.5z"/>
<path class="st2" d="M122.8,617.5c-8,0-18-6-19.9-16c-19.9-81.8,27.9-115.7,47.9-127.7c10-6,21.9-2,25.9,8c6,10,2,21.9-8,25.9
	c-19.9,10-39.9,31.9-27.9,81.8c2,10-4,21.9-14,23.9C124.8,617.5,124.8,617.5,122.8,617.5z"/>
<path class="st3" d="M495.8,406c-2-6-4-10-6-16c0-2-2-4-2-6c-2-4-2-8-4-10c-2-4-2-6-4-10s-2-6-2-10c-2-4-2-8-4-10c-2-4-2-8-4-12
	c0-2-2-4-2-6c-2-4-2-8-2-12c0-2,0-4-2-6c0-4-2-8-2-12c0-2,0-4-2-6c0-4-2-8-2-12v-4v-12v-6v-12v-4v-12v-4v-10v-6v-8v-6v-6
	c0-2,0-4,2-8v-4c0-2,2-6,2-8v-4c0-4,2-6,2-10v-2c0-4,2-6,2-10c12-41.9,31.9-69.8,39.9-79.8c2,0,4-2,4-2c10-4,14-16,10-25.9
	c-4-10-10-18-19.9-14c0,0-2,0-2,2c-2,0-4,0-6,2c-2,0-2,2-4,4C210.6,154.7,220.5,457.9,220.5,459.9c0,10,10,19.9,19.9,19.9
	c12,0,19.9-10,19.9-19.9c0-2-8-233.4,183.5-363c-29.9,73.8-53.9,201.5,37.9,373c4,6,10,10,18,10c4,0,6,0,10-2c8-4,12-12,10-19.9
	c0-2-2-6-2-8c-4-8-8-16-12-21.9v-2C501.8,420,497.8,412,495.8,406L495.8,406z"/>
<path class="st4" d="M679.3,280.4C643.4,242.5,737.2,21,499.8,21C364.2,284.4,679.3,280.4,679.3,280.4z"/>
</svg>
