<?xml version="1.0" encoding="utf-8"?>
<!-- Generator: Adobe Illustrator 24.0.0, SVG Export Plug-In . SVG Version: 6.00 Build 0)  -->
<svg version="1.1" id="Layer_1" xmlns="http://www.w3.org/2000/svg" xmlns:xlink="http://www.w3.org/1999/xlink" x="0px" y="0px"
	 viewBox="0 0 800 800" style="enable-background:new 0 0 800 800;" xml:space="preserve">
<style type="text/css">
	.st0{fill:#EA8711;}
	.st1{fill:#FFC107;}
	.st2{fill:#4CAF50;}
	.st3{fill:#388E3C;}
</style>
<path class="st0" d="M318.1,751.4c-87.9,0-105.4-120.4-105.4-333.9S283.5,31,370.9,31S529,204.1,529,417.6s-17.6,333.9-105.4,333.9"
	/>
<path class="st1" d="M423.6,628.4c0,19.4-15.7,35.1-35.1,35.1l0,0h-35.1c-19.4,0-35.1-15.8-35.1-35.2c0-19.4,15.7-35.1,35.1-35.1
	h35.1C407.8,593.3,423.6,609,423.6,628.4L423.6,628.4L423.6,628.4z M423.6,540.6c0-19.4-15.7-35.1-35.1-35.1l0,0h-35.1
	c-19.4,0-35.1,15.8-35.1,35.2c0,19.4,15.7,35.1,35.1,35.1h35.1C407.8,575.7,423.6,560,423.6,540.6L423.6,540.6L423.6,540.6z
	 M423.6,452.7c0-19.4-15.7-35.1-35.1-35.1l0,0h-35.1c-19.4,0-35.1,15.8-35.1,35.2c0,19.4,15.7,35.1,35.1,35.1h35.1
	C407.8,487.9,423.6,472.1,423.6,452.7L423.6,452.7L423.6,452.7z M423.6,364.9c0-19.4-15.7-35.1-35.1-35.1h-35.1
	c-19.4,0-35.1,15.8-35.1,35.2c0,19.4,15.7,35.1,35.1,35.1h35.1C407.8,400,423.6,384.3,423.6,364.9z M423.6,277
	c0-19.4-15.7-35.1-35.1-35.1h-35.1c-19.4,0-35.1,15.7-35.1,35.1s15.7,35.1,35.1,35.1h35.1C407.8,312.1,423.6,296.4,423.6,277
	L423.6,277z M423.6,189.1c0-19.4-15.7-35.1-35.1-35.1h-35.1c-19.4,0-35.1,15.7-35.1,35.2c0,19.4,15.7,35.1,35.1,35.1h35.1
	C407.8,224.3,423.6,208.6,423.6,189.1L423.6,189.1z M546.6,540.6c0-19.4-15.7-35.1-35.1-35.1c0,0,0,0,0,0h-35.1
	c-19.4,0-35.1,15.8-35.1,35.2c0,19.4,15.7,35.1,35.1,35.1h35.1C530.8,575.7,546.6,560,546.6,540.6
	C546.6,540.6,546.6,540.6,546.6,540.6L546.6,540.6z M546.6,452.7c0-19.4-15.7-35.1-35.1-35.1c0,0,0,0,0,0h-35.1
	c-19.4,0-35.1,15.8-35.1,35.2c0,19.4,15.7,35.1,35.1,35.1h35.1C530.8,487.9,546.6,472.1,546.6,452.7
	C546.6,452.7,546.6,452.7,546.6,452.7L546.6,452.7z M546.6,364.9c0-19.4-15.7-35.1-35.1-35.1l0,0h-35.1c-19.4,0-35.1,15.8-35.1,35.2
	c0,19.4,15.7,35.1,35.1,35.1h35.1C530.8,400,546.6,384.3,546.6,364.9L546.6,364.9z M546.6,277c0-19.4-15.7-35.1-35.1-35.1l0,0h-35.1
	c-19.4,0-35.1,15.7-35.1,35.1s15.7,35.1,35.1,35.1h35.1C530.8,312.1,546.6,296.4,546.6,277L546.6,277L546.6,277z M529,189.1
	c0-19.4-15.7-35.1-35.1-35.1l0,0h-17.6c-19.4,0-35.1,15.7-35.1,35.2c0,19.4,15.7,35.1,35.1,35.1h17.6
	C513.3,224.3,529,208.6,529,189.1L529,189.1L529,189.1z M247.9,101.3c0,19.4,15.7,35.1,35.1,35.1s35.1-15.7,35.1-35.1
	S302.4,66.1,283,66.1S247.9,81.9,247.9,101.3z M335.7,101.3c0,19.4,15.7,35.1,35.1,35.1c19.4,0,35.1-15.7,35.1-35.1
	s-15.7-35.1-35.1-35.1C351.4,66.1,335.7,81.9,335.7,101.3z M423.6,101.3c0,19.4,15.8,35.1,35.2,35.1c19.4,0,35.1-15.7,35.1-35.1
	c0-19.4-15.8-35.1-35.2-35.1C439.3,66.2,423.6,81.9,423.6,101.3z M212.7,189.1c0,19.4,15.7,35.1,35.1,35.1h17.6
	c19.4,0,35.1-15.7,35.1-35.1S284.8,154,265.4,154h-17.6C228.4,154,212.7,169.7,212.7,189.1L212.7,189.1z M195.1,277
	c0,19.4,15.7,35.1,35.1,35.1h35.1c19.4,0,35.1-15.7,35.1-35.1s-15.7-35.1-35.1-35.1h-35.1C210.9,241.9,195.1,257.6,195.1,277
	L195.1,277z M195.1,364.9c0,19.4,15.7,35.1,35.1,35.1h35.1c19.4,0,35.1-15.7,35.1-35.1c0-19.4-15.7-35.1-35.1-35.1h-35.1
	C210.9,329.7,195.1,345.4,195.1,364.9L195.1,364.9z M195.1,452.7c0,19.4,15.7,35.1,35.1,35.1l0,0h35.1c19.4,0,35.1-15.8,35.1-35.2
	c0-19.4-15.7-35.1-35.1-35.1h-35.1C210.9,417.6,195.1,433.3,195.1,452.7L195.1,452.7L195.1,452.7z"/>
<path class="st2" d="M704.7,570.5c-211.6-210.8-316.3,93-316.3,93s-74.5-199.7-281.1-316.3C244.2,478.8,109.8,769,381.1,769
	C630,769,468.2,473.8,704.7,570.5z"/>
<path class="st3" d="M704.7,570.5C493.1,359.7,388.4,769,388.4,769S212.7,400,107.3,347.3C244.2,478.8,230.3,769,381.1,769
	C546.6,769,476.3,435.1,704.7,570.5z"/>
</svg>
