<?xml version="1.0" encoding="utf-8"?>
<!-- Generator: Adobe Illustrator 24.0.0, SVG Export Plug-In . SVG Version: 6.00 Build 0)  -->
<svg version="1.1" id="Layer_1" xmlns="http://www.w3.org/2000/svg" xmlns:xlink="http://www.w3.org/1999/xlink" x="0px" y="0px"
	 viewBox="0 0 800 800" style="enable-background:new 0 0 800 800;" xml:space="preserve">
<style type="text/css">
	.st0{fill:#F44336;}
	.st1{fill:#795548;}
	.st2{fill:#FF80AB;}
	.st3{fill:#5D4037;}
	.st4{fill:#F8BBD0;}
	.st5{fill:#FFE0B2;}
</style>
<path class="st0" d="M316.7,130.5c0,46,37.3,83.3,83.3,83.3c46,0,83.3-37.3,83.3-83.3c0,0,0,0,0-0.1c0-46-37.3-83.3-83.3-83.3
	S316.7,84.5,316.7,130.5L316.7,130.5z"/>
<path class="st1" d="M754,463.6c0-92-158.5-166.6-354-166.6S46,371.6,46,463.6c0,22.1,10.4,32.3,28.8,35.2
	c8.9,38.4,147.2,69,325.2,69c176.7,0,313.7-30.1,324.3-68.1C743.5,498.7,754,489,754,463.6z"/>
<path class="st2" d="M629.1,776H170.9L66.8,484.5l41.6,41.6l41.6-41.6l41.6,41.6l41.6-41.6l41.6,41.6l41.6-41.6l41.6,41.6l41.6-41.6
	l41.6,41.6l41.6-41.6l41.6,41.6l41.6-41.6l41.6,41.6l41.6-41.6l41.6,41.6l41.6-41.6L629.1,776z"/>
<path class="st3" d="M754,463.6c-0.1-7.7-1.4-15.4-3.7-22.8l-18-14.5l-40.8,40.9L679.3,455l-29.4-29.4L620.4,455l-12.2,12.2L596,455
	l-29.4-29.4L537.1,455l-12.2,12.2L512.7,455l-29.4-29.4L453.8,455l-12.2,12.2L429.4,455L400,425.6L370.6,455l-12.2,12.2L346.2,455
	l-29.4-29.4L287.3,455l-12.2,12.2L262.9,455l-29.4-29.4L204,455l-12.2,12.2L179.6,455l-29.4-29.4L120.7,455l-12.2,12.2l-41.6-39.1
	l-19.1,19.4c-1.1,5.3-1.7,10.7-1.7,16.1c0,20.3,9.2,30.3,24.9,34l-4.1-13.2l41.6,41.6l41.6-41.6l41.6,41.6l41.6-41.6l41.6,41.6
	l41.6-41.6l41.6,41.6l41.6-41.6l41.6,41.6l41.6-41.6l41.6,41.6l41.6-41.6l41.6,41.6l41.6-41.6l41.6,41.6l41.6-41.6l-4.6,14.7
	C745,497,754,487,754,463.6z"/>
<path class="st4" d="M316.7,484.5l-41.6,41.6L319.3,776h26.9L316.7,484.5z M233.4,484.5l-41.6,41.6L254.2,776h31.3L233.4,484.5z
	 M150.1,484.5l-41.6,41.6L191.8,776h30.4L150.1,484.5z M483,484.5l-41.4,41.6L428.9,776h24.9L483,484.5z M566.3,484.5l-41.4,41.6
	L486.8,776h26.9L566.3,484.5z M649.9,484.5l-41.6,41.6L547.5,776l29.5,0.9L649.9,484.5z M400,484.5l-41.6,41.6L374,776h26V484.5z
	 M691.5,526.1l41.6-41.6L629.1,776h-25.2L691.5,526.1z"/>
<path class="st5" d="M627.2,290.6c0,94.1-101.7,35.9-227.2,35.9s-227.2,58.2-227.2-35.9c0-94.1,101.7-139.4,227.2-139.4
	S627.2,196.5,627.2,290.6z"/>
</svg>
