<?xml version="1.0" encoding="utf-8"?>
<!-- Generator: Adobe Illustrator 24.0.0, SVG Export Plug-In . SVG Version: 6.00 Build 0)  -->
<svg version="1.1" id="Layer_1" xmlns="http://www.w3.org/2000/svg" xmlns:xlink="http://www.w3.org/1999/xlink" x="0px" y="0px"
	 viewBox="0 0 800 800" style="enable-background:new 0 0 800 800;" xml:space="preserve">
<style type="text/css">
	.st0{fill:#5ABA63;}
	.st1{fill:#F0EDE0;}
	.st2{fill:#91CF96;}
	.st3{fill:#F9D70B;}
</style>
<g>
	<g>
		<path class="st0" d="M422.5,663.9c-7.5,0-14.9-3.9-19-10.8c-6.2-10.5-2.7-24,7.8-30.1c25.7-15.1,51.2-48,58.9-59.3
			c6.8-10.1,20.5-12.7,30.6-5.9c10.1,6.8,12.7,20.5,5.9,30.6c-1.3,2-33.6,49.4-73.1,72.6C430.1,663,426.3,663.9,422.5,663.9"/>
		<path class="st0" d="M400.5,795.9c-2.2,0-4.4-0.4-6.7-1c-11.6-3.7-18-16.1-14.3-27.6c38.2-120.3,15.6-223.2,0.6-291.3l-1.2-5.3
			c-2.6-11.9,4.9-23.6,16.8-26.2c11.8-2.5,23.6,4.9,26.2,16.8l1.1,5.2c15,68.3,40.1,182.5-1.7,314.1
			C418.4,789.9,409.8,795.9,400.5,795.9"/>
	</g>
	<path class="st1" d="M400.5,488c-38.6,0-70.1-24.9-79.4-59.5c-27.1,9.1-58,5.2-83.5-20.2c-23.7-23.7-30.2-53.8-19.8-82.4
		c-34.6-9.7-60-41.5-60-79.1s25.4-69.4,60-79.1c-9.9-26.7-6.8-57.2,19.7-83.7c26.5-26.5,57.1-29.7,83.7-19.7
		c9.7-34.6,41.5-60,79.2-60c37.6,0,69.4,25.3,79.1,59.8c5.7-2.1,11.5-3.5,17.4-4.3c16.5-2.2,41.2,0.3,65,24.2
		c23.8,23.8,30.6,54.7,20.7,83.6c34.4,9.4,59.1,40.9,59.1,79.3c0,38.4-24.7,69.9-59.2,79.3c9.6,28.4,2.8,58.8-20.6,82.2
		c-18.1,18.1-40.2,26.6-63.7,24.4c-6.2-0.6-12.4-1.9-18.5-4C470.5,463.2,438.9,488,400.5,488"/>
	<path class="st2" d="M488.4,598c-12.2,0-22-9.9-22-22c0-100.7,53.3-154,154-154c12.2,0,22,9.9,22,22
		C642.4,557.6,559.5,598,488.4,598"/>
	<path class="st0" d="M417.1,727.2c-7.2,0-14.2-3.5-18.4-10c-21.2-32.4-54.9-57.3-55.2-57.5c-9.8-7.2-11.9-20.9-4.8-30.8
		c7.2-9.8,21-11.9,30.8-4.7c1.6,1.2,40.5,29.9,66,68.9c6.7,10.2,3.8,23.8-6.4,30.4C425.4,726,421.2,727.2,417.1,727.2"/>
	<path class="st2" d="M356.5,663.9c-71,0-154-40.3-154-154c0-12.1,9.8-22,22-22c100.7,0,154,53.2,154,154
		C378.5,654.1,368.6,663.9,356.5,663.9"/>
	<path class="st3" d="M400.5,334c-48.5,0-88-39.5-88-88s39.5-88,88-88c48.5,0,88,39.5,88,88S449,334,400.5,334"/>
</g>
</svg>
