<?xml version="1.0" encoding="utf-8"?>
<!-- Generator: Adobe Illustrator 24.0.0, SVG Export Plug-In . SVG Version: 6.00 Build 0)  -->
<svg version="1.1" id="Layer_1" xmlns="http://www.w3.org/2000/svg" xmlns:xlink="http://www.w3.org/1999/xlink" x="0px" y="0px"
	 viewBox="0 0 800 800" style="enable-background:new 0 0 800 800;" xml:space="preserve">
<style type="text/css">
	.st0{fill:#68362B;}
	.st1{fill:#FFC107;}
	.st2{fill:#FF3D00;}
	.st3{fill:#CE8106;}
	.st4{fill:#8BC34A;}
	.st5{fill:#FFEB3B;}
</style>
<path class="st0" d="M739.1,549.6c0,27.5-22.3,49.9-49.9,49.9H110.8c-27.5,0-49.9-22.3-49.9-49.9s22.3-49.9,49.9-49.9h578.4
	C716.7,499.7,739.1,522,739.1,549.6L739.1,549.6z M689.2,280.3c0,0-5-6-39.9-19.9c-49.9-19.9-468.7-19.9-498.6,0
	c-20.8,13.9-39.9,19.9-39.9,19.9c-27.5,0-49.9,22.3-49.9,49.8c0,27.5,22.3,49.9,49.8,49.9c0,0,0,0,0,0h578.4
	c27.5,0,49.9-22.3,49.9-49.8C739.1,302.7,716.8,280.3,689.2,280.3C689.2,280.3,689.2,280.3,689.2,280.3L689.2,280.3z"/>
<path class="st1" d="M80.9,619.4v94.7c0,24.8,20.1,44.9,44.9,44.9h548.5c24.8,0,44.9-20.1,44.9-44.9v-94.7H80.9z M400,41
	C223.8,41,80.9,130.3,80.9,240.4h638.2C719.1,130.3,576.3,41,400,41L400,41z"/>
<path class="st2" d="M60.9,400h678.1v79.8H60.9V400z"/>
<path class="st3" d="M220.5,180.6c0,11,8.9,19.9,19.9,20c11,0,19.9-8.9,20-19.9c0,0,0,0,0,0c0-11-8.9-19.9-19.9-20
	C229.4,160.6,220.5,169.6,220.5,180.6C220.5,180.6,220.5,180.6,220.5,180.6z"/>
<path class="st3" d="M260.4,120.8c0,11,8.9,19.9,19.9,20s19.9-8.9,20-19.9c0,0,0,0,0,0c0-11-8.9-19.9-19.9-20
	C269.3,100.8,260.4,109.7,260.4,120.8C260.4,120.8,260.4,120.8,260.4,120.8z"/>
<path class="st3" d="M300.3,180.6c0,11,8.9,19.9,19.9,20c11,0,19.9-8.9,20-19.9c0,0,0,0,0,0c0-11-8.9-19.9-19.9-20
	C309.2,160.6,300.3,169.6,300.3,180.6C300.3,180.6,300.3,180.6,300.3,180.6z"/>
<path class="st4" d="M757.2,627.4c-5.7-17.1-19.1-30.1-36-39.9c-8.7,7.4-19.8,12-32,12H110.8c-12.4,0-24.3-4.7-33.4-13
	c-11.5,11.5-20.5,24.4-24,36.1c-8.2,27.1-12.7,70.8,25,68.2c17.5-1.4,34.3-7.6,48.4-18.1c21.8-15.8,30.9-20.4,47.2-0.2
	c15.9,19.6,28.5,36.6,48.6,12.9c20.9-24.6,23.6-38.2,59.3-30.9c37.4,7.6,68.8,33.6,107,39.6c18.6,2.9,26.7,2.6,37.7-13.4
	c9-13,17.2-41.1,34.6-43.7c28.4-4.3,7,27.3,6.1,41.7c-2.1,36.3,37.8,5.3,48.4-7.1c6.6-7.8,16.5-23.8,28.5-20.7
	c13.2,3.4,6.4,10.4,9.3,21.2c2.7,10.1,11.7,27.4,23.9,27.2c14.9-0.2,22-26.6,29.5-37.3c6.1-8.6,17.5-23.6,29.5-22.9
	c13.3,0.8,16.9,17.4,23.6,28.3c13.7,22.3,51.6,42.9,76,25.1C751.7,681,763.6,646.6,757.2,627.4L757.2,627.4z M721.2,235.2H82.3
	c-19.1,8.1-33.6,18.3-37.1,29.9c-8.2,27.1-7.1,49.2,30.9,46.6c17.6-1.4,34.5-7.6,48.7-18.1c22-15.8,31.1-20.4,47.6-0.2
	c16,19.6,28.7,36.6,49,12.9c21.1-24.6,23.8-38.2,59.8-30.9c37.7,7.6,69.3,33.6,107.8,39.6c18.7,2.9,26.9,2.6,38-13.4
	c9.1-13,17.3-41.1,34.9-43.7c28.6-4.3,7,27.3,6.2,41.7c-2.1,36.3,38,5.3,48.7-7.1c6.7-7.8,16.6-23.8,28.8-20.7
	c13.3,3.4,6.5,10.4,9.4,21.2c2.7,10.1,11.8,27.4,24.1,27.2c15.1-0.2,22.1-26.6,29.8-37.3c6.1-8.6,17.7-23.6,29.7-22.9
	c13.4,0.8,17,17.4,23.7,28.3c13.8,22.3,52,42.9,76.6,25.1c15.8-11.4,16-19.2,9.5-38.4C743.2,260.5,733.5,247.1,721.2,235.2
	L721.2,235.2z"/>
<path class="st5" d="M699.2,499.7c-299.2,0-418.8,59.8-418.8,59.8s-79.8-59.8-179.5-59.8v-19.9h598.3V499.7z M100.8,400
	c299.2,0,418.8,59.8,418.8,59.8S599.4,400,699.2,400v-19.9H100.8V400z"/>
</svg>
