<?xml version="1.0" encoding="utf-8"?>
<!-- Generator: Adobe Illustrator 24.0.0, SVG Export Plug-In . SVG Version: 6.00 Build 0)  -->
<svg version="1.1" id="Layer_1" xmlns="http://www.w3.org/2000/svg" xmlns:xlink="http://www.w3.org/1999/xlink" x="0px" y="0px"
	 viewBox="0 0 800 800" style="enable-background:new 0 0 800 800;" xml:space="preserve">
<style type="text/css">
	.st0{fill:#D4E157;}
	.st1{fill:#C0CA33;}
	.st2{fill:#7CB342;}
	.st3{fill:#689F38;}
</style>
<path class="st0" d="M69.5,730.5c0-136.1,38-173.1,57.4-192.7c20.4-20.4,45.4-35.5,72.9-44.1c30-8.9,64-13.9,111.8-5.2
	c8.7,47.7,3.7,81.7-5.2,111.8c-8.5,27.5-23.7,52.6-44.1,72.9C242.5,692.5,205.6,730.5,69.5,730.5z"/>
<path class="st0" d="M50,555.5c3.2-48.7,16.5-79.1,32.7-106.8c15.3-25.3,36.3-46.6,61.4-62.2c25.1-15.6,53.5-25,83-27.4
	c32-2.2,66.8,0.3,111.9,19.3c-3.1,48.9-16.4,81.2-32.6,108.8c-15.3,25.3-36.4,46.5-61.5,62c-25.2,15.5-53.6,24.8-83.1,27.2
	C129.8,578.6,95,574.4,50,555.5z"/>
<path class="st0" d="M244.5,750c-18.8-45-23.1-79.8-20.9-111.8c2.4-29.4,11.7-57.9,27.2-83.1c15.5-25.2,36.7-46.3,62-61.6
	c27.6-16.3,59.9-29.5,108.8-32.6c19,45.1,21.5,80,19.3,111.9c-2.4,29.4-11.8,57.9-27.4,83c-15.7,25.1-37,46.1-62.2,61.4
	C323.6,733.4,293.1,746.8,244.5,750z"/>
<path class="st0" d="M380.3,722.5c-23.2-43.5-29-78.7-29.9-111.5c-0.3-32.6,6.8-61.6,19.3-88c13-27.5,32.3-51.6,56.2-70.4
	c26.1-19.9,57.1-37.5,105.8-46.6c23.4,43.6,29.2,78.8,30.1,111.6c0.4,30.4-6.3,60.5-19.5,87.9c-13.2,27.4-32.5,51.4-56.4,70.2
	C459.7,695.7,428.7,713.2,380.3,722.5L380.3,722.5z M127.8,302.8c11.7-47.9,35.3-70.8,56.1-95.3c19.5-22.3,44-39.6,71.5-50.4
	c27.5-10.9,57.3-14.9,86.7-11.7c31.9,3.8,65.9,12.9,107,40.4c-11.6,48.1-30.4,77.8-51.2,102.3c-19.5,22.3-44,39.5-71.6,50.2
	c-27.6,10.7-57.3,14.6-86.8,11.5C207.6,345.9,166.7,341.7,127.8,302.8z"/>
<path class="st0" d="M497.2,672.2c-26.6-40.9-42.2-79.5-45.8-111.3c-2.9-29.4,1.1-59.1,11.8-86.7c10.7-27.5,27.8-52.1,49.9-71.7
	c24.2-20.9,53.6-39.8,101.1-51.6c26.9,40.9,35.6,74.8,39.2,106.6c2.9,29.4-1.2,59-12,86.5c-10.9,27.5-28,52-50.1,71.6
	C567,636.5,544.5,660.3,497.2,672.2z"/>
<path class="st0" d="M350.9,582.7c-20.8-44.3-24.7-79.3-23.9-111.6c1.2-29.8,9.3-59,23.8-85.1c14.4-26.2,34.8-48.5,59.6-65.3
	c27-17.8,58.8-32.9,107.6-38.6c21,44.5,25,79.4,24.1,111.8c-1.2,29.8-9.4,59-24,85c-14.6,26.1-35.1,48.4-59.8,65.1
	C431.2,561.8,399.5,576.9,350.9,582.7L350.9,582.7z"/>
<path class="st0" d="M217.3,449.1c5.5-49.2,20.5-81.2,38.1-108.5c16.6-24.9,38.9-45.4,65-60.1c26.1-14.6,55.3-22.7,85.2-23.7
	c32.4-0.6,67.6,3.7,112.3,25.2c-5.3,49.4-20.2,81.5-37.9,108.7c-16.6,24.9-38.9,45.4-65.1,59.8c-26.2,14.4-55.4,22.5-85.3,23.4
	C297.1,474.7,261.9,470.4,217.3,449.1L217.3,449.1z"/>
<path class="st0" d="M77.5,419.7c9.3-48.4,26.8-79.5,46.8-105.6c18.8-23.9,42.8-43.2,70.2-56.4c27.4-13.2,57.5-19.9,87.9-19.5
	c32.8,0.9,68.1,6.7,111.6,30.1c-9.1,48.7-26.7,79.8-46.6,105.8c-18.8,23.9-42.9,43.2-70.4,56.2c-27.5,13.1-57.6,19.6-88,19.2
	C156.2,448.7,121,442.9,77.5,419.7L77.5,419.7z"/>
<path class="st1" d="M349.3,610.4c-0.1-9.5,0.5-18.8,1.6-27.7c-15.5,11-32.6,19.5-50.8,25.1c-24.2,7.2-49.5,10.2-74.7,9
	c-0.9,4.4-1.4,9-1.9,13.6c29.7,10.9,68.8,20.1,87.4,14.8c0.8-0.3,1.5-0.5,2.2-0.7c3.3,23.1,10.2,50,25,80.9c4.9-2.4,9.6-5,14.1-7.6
	c6.9-4.1,13.2-8.5,19.2-13.1C354.9,668.9,350.2,638.7,349.3,610.4L349.3,610.4z M183.1,574.6c-1.3-25.2,1.8-50.5,9-74.7
	c5.6-18.2,14.1-35.3,25.2-50.8c-8.9,1.1-18.2,1.8-27.7,1.6c-28.4-1-58.6-5.7-94.4-22.2c-4.8,6.1-9.1,12.5-13.1,19.2
	c-2.6,4.5-5.1,9.3-7.6,14.1c31,14.8,58,21.8,80.9,25.1c-0.2,0.5-0.3,1-0.4,1.5c-5.9,20.5-1.1,58,11.2,88.6
	C171.9,576.4,177.6,575.6,183.1,574.6L183.1,574.6z"/>
<path class="st1" d="M225.5,616.8c-12.7-0.6-25.4-2.1-37.9-4.5c-2.5-13.7-3.9-26.2-4.5-37.9c-6.7,1.4-13.5,2.5-20.7,3.1
	c-18.3,1.1-40.7-1.6-62.4-5.8c-3.4,9.4-9.5,13.4-16.1,38.2c28.1,5.6,62,7.5,80.9,6.3c7.4-0.5,14.6-1.7,21.8-3
	c-1.2,7-2.3,14-2.9,21.1c-1.2,19.2,0.2,53.5,5.8,81.7c19.9-6.7,27.7-10.6,38.7-16.3c-4.2-21.7-6.9-44-5.7-62.4
	C223,630.4,224.2,623.5,225.5,616.8L225.5,616.8z M490.3,309.6c-8.1,19.4-19.1,36-30.6,51.9c-11.7,15.6-24.6,30.4-38.4,44.2
	c-13.8,13.9-28.5,26.7-44.2,38.5c-15.9,11.6-32.5,22.5-51.9,30.6c8.1-19.4,19-36,30.6-51.9c11.7-15.6,24.6-30.4,38.4-44.2
	c13.8-13.8,28.6-26.7,44.2-38.4C454.4,328.7,471,317.7,490.3,309.6z M249.5,350.2c-3.3-0.2-6.6-0.1-10-0.4
	c-31.2-3.7-70.9-8.1-109-44.5c-2.3,2.5-4.6,5-6.8,7.7c-6,8-11.9,16.6-17.3,26l4.6,3c49.4,32.8,89.9,41.9,120.3,45.9
	C236.5,373.8,242.7,361.5,249.5,350.2z M449.5,559.7c-0.3-3.4-22.8,11.9-36.8,17.3c4,30.3,11.9,61.9,44.5,111.2l3,4.6
	c9.3-5.5,18-11.2,26-17.3c3-2.4,5.7-4.9,8.5-7.4c-22.2-34.9-36.3-68.1-41.6-96.6C451.2,567.8,450,563.8,449.5,559.7L449.5,559.7z"/>
<path class="st1" d="M575,380.6c-9.6,7.2-20,13.2-30.9,18c-1.7,30.9-9.9,58-23.4,82.3c-14.6,26.1-35.2,48.4-60.1,65
	c-27.2,17.7-59.3,32.7-108.5,38.1c-0.2-0.4-0.3-0.9-0.6-1.3c-0.2,0-0.4,0.1-0.7,0.1c-20.1-43-24.4-77.1-23.9-108.6
	c-17,0.2-34.7-1.1-54.2-5.4l-2.5-0.6c-4.4-1.1-8.8-2.2-13.2-3.6c-1.4-0.4-2.9-0.9-4.3-1.3c-4.3-1.4-8.6-2.9-12.8-4.5
	c-1.6-0.6-3.1-1.1-4.7-1.8c-5.8-2.3-11.8-4.9-18-7.8c5.5-49.2,20.5-81.2,38.1-108.5c16.6-24.9,38.9-45.4,65-60.1
	c23.1-12.9,48.9-20.8,77.9-23c5-11.9,11.7-23.1,21.2-32.6c-19.3,2.1-38.7,1.7-57.9-1.1c-21,4.6-41.3,12.2-60.1,22.6
	c-83.7,51.8-132.1,155.3-114.6,227.3c26.7,26.7,68.8,35.3,102.9,38c3.1,34.5,12.3,77.3,39,104c66.2,23.2,174.1-32.4,225.9-116
	c10-17.9,17.2-37,22-57C573.3,422.2,572.7,401.3,575,380.6z"/>
<path class="st1" d="M326.9,634.5c0-14.8,2.1-29,6-42.4c-10.7,6.1-22.1,11-33.8,14.8c-19.1,5.7-39.9,9.8-64.8,9.8
	c-14.1,0-29.6-1.3-46.8-4.4c-8.6-47.5-3.5-81.5,5.4-111.5c3.1-9.8,7-18.7,11.4-27.3c-5.8,0.7-11.7,1.2-17.7,1.2
	c-8.4,0-16.5-0.8-24.5-2.2c-2.2,5.4-4.5,10.8-6.3,16.5c-8.8,29.7-17.3,70.7-6.6,130.2l4.8,26.6l26.6,4.8c18.8,3.4,36.4,5,53.6,5
	c25.6,0,49.7-3.6,75.8-11.4c5.8-1.8,11.3-4.2,16.8-6.4C327,636.7,326.9,635.7,326.9,634.5L326.9,634.5z"/>
<path class="st2" d="M652.8,594.4c0,0-91.5-90-77.8-213.9C497.2,438.9,400,400,400,400s-38.9-116.7,19.4-175
	c-123.9,13.7-213.9-77.8-213.9-77.8c137.6-137.6,314.6-110.6,436.2,11C763.4,279.8,790.4,456.8,652.8,594.4L652.8,594.4z"/>
<path class="st3" d="M655.3,171.8l-27.1-27.1c44-55.8,119.1-55.8,121.8-55.8v38.3C749.6,127.2,691.6,127.8,655.3,171.8z"/>
<path class="st3" d="M641.8,158.2c-1.1,40.3-11.5,71.1-24.8,99.1c-13.5,27.8-31.2,51.4-51.7,72.2c-20.7,20.6-44.2,38.3-72.1,51.8
	c-28,13.3-52.9,17.8-93.3,18.7c0.9-40.4,5.4-65.3,18.7-93.2c13.5-27.8,31.2-51.4,51.8-72c20.7-20.5,44.3-38.2,72.2-51.7
	C570.7,169.7,601.5,159.3,641.8,158.2L641.8,158.2z M205.6,147.2c27.8-33.7,62.1-51.4,99.1-69.2c37.2-17.3,74-22.8,116-26.7
	c42-3.8,86.5,0.2,128.1,16.7c41.1,16.3,79.8,48,93,90.1c-41.6-12.9-75.5-10.5-109.7-11C498.1,146.8,205.6,147.2,205.6,147.2
	L205.6,147.2z M652.8,594.4c0,0,0.4-292.6,0-326.5c-0.5-34.2,2-68.1-11-109.7c42.1,13.2,73.8,51.8,90.1,93
	c16.6,41.6,20.6,86.1,16.7,128.1c-3.8,42.1-12.7,86.2-30,123.5C700.9,539.8,686.4,566.6,652.8,594.4z"/>
</svg>
