<?xml version="1.0" encoding="utf-8"?>
<!-- Generator: Adobe Illustrator 24.0.0, SVG Export Plug-In . SVG Version: 6.00 Build 0)  -->
<svg version="1.1" id="Layer_1" xmlns="http://www.w3.org/2000/svg" xmlns:xlink="http://www.w3.org/1999/xlink" x="0px" y="0px"
	 viewBox="0 0 800 800" style="enable-background:new 0 0 800 800;" xml:space="preserve">
<style type="text/css">
	.st0{fill:#795548;}
	.st1{fill:#8BC34A;}
	.st2{fill:#689F38;}
	.st3{fill:#5D4037;}
	.st4{fill:#E6EE9C;}
</style>
<path class="st0" d="M174.8,174.8C21.1,328.4-2.6,553.8,121.8,678.2s349.8,100.7,503.5-53s177.4-379.1,53-503.5
	S328.4,21.1,174.8,174.8L174.8,174.8z"/>
<path class="st1" d="M474.8,79.5c70.8,0,132,23.8,177,68.8c109.6,109.6,85.8,311.7-53,450.5c-77.4,77.4-177.1,121.8-273.5,121.8
	c-70.8,0-132-23.8-177-68.8c-52-52-75.8-126.7-67-210.4c9.1-86.6,51.7-171.9,120-240.1C278.6,123.9,378.3,79.5,474.8,79.5"/>
<path class="st2" d="M172.2,548.8c-9.5-18.2-2.5-40.8,15.8-50.3c0.1,0,0.2-0.1,0.3-0.1c18.6-9.6,105-23.9,105-23.9
	S241,555.6,222.6,565c-14.5,7.4-32.1,4.7-43.6-6.8C176.2,555.5,173.9,552.3,172.2,548.8L172.2,548.8z M238.6,581
	c9.3-18.6,85.6-75.1,85.6-75.1s-9.4,90.6-18.8,109c-9.4,18.4-31.9,25.8-50.3,16.4c-0.1,0-0.1-0.1-0.2-0.1l0.1,0.1
	c-18.4-9.3-25.8-31.7-16.5-50.1C238.5,581.2,238.6,581.1,238.6,581L238.6,581z M149.7,437c1.2-20.7,18.9-36.5,39.6-35.4
	c20.7,1.1,91.5,28.7,91.5,28.7s-75.1,47.4-95.9,46.2c-9.2-0.5-17.8-4.4-24.2-11C153.2,458,149.2,447.6,149.7,437L149.7,437z
	 M327.3,618.2c-1.3-20.7,48.7-98.9,48.7-98.9s24.8,73.8,26,94.4c1.2,20.7-14.6,38.5-35.2,39.7c-10.7,0.6-21.1-3.4-28.7-11
	C331.5,636,327.7,627.4,327.3,618.2L327.3,618.2z M178.1,330.9c9-18.6,31.4-26.3,50-17.3c0,0,0.1,0,0.1,0.1
	c18.7,8.9,61.3,65.4,61.3,65.4s-75.3,10.9-94,2C176.8,372.1,169,349.7,178.1,330.9C178,331,178,331,178.1,330.9L178.1,330.9z
	 M422.5,607.8c-9.1-18.7,2-98.6,2-98.6s56.4,47.1,65.4,65.7c9,18.7,1.2,41.1-17.4,50.2c-14.4,6.9-31.6,4.1-42.9-7.1
	C426.8,614.9,424.4,611.5,422.5,607.8L422.5,607.8z M240.6,243.5c14.6-14.6,38.4-14.6,53,0c14.6,14.6,29.9,82.9,29.9,82.9
	s-68.2-15.2-82.8-29.9C226,281.9,226,258.1,240.6,243.5C240.6,243.5,240.6,243.5,240.6,243.5z M475.1,475.1c0,0,70.8,18.9,85.5,33.6
	c14.6,14.6,14.6,38.4,0,53l-0.4,0.4l-0.3,0.3c-14.6,14.6-38.4,14.6-53,0C492.4,547.7,475.1,475.1,475.1,475.1L475.1,475.1z
	 M310.6,231.1c-9.1-18.6-1.3-41.1,17.3-50.2c0,0,0,0,0.1,0c18.5-9.1,40.9-1.4,50,17.1c0,0,0,0.1,0.1,0.1c9,18.5-3.2,93.1-3.2,93.1
	S317.2,247.6,310.6,231.1L310.6,231.1z M605.7,424.1c18.6,8.9,26.4,31.2,17.4,49.8c0,0.1-0.1,0.1-0.1,0.2
	c-9.1,18.6-31.4,26.4-50.1,17.5c-19.7-9.6-63.3-68.2-63.3-68.2S587,415,605.7,424.1L605.7,424.1z M398.5,191.9
	c-1.3-20.6,14.3-38.4,34.9-39.7c0,0,0.1,0,0.1,0l0.1,0.1c20.5-1.4,38.2,14.2,39.6,34.7c0,0.1,0,0.3,0,0.4
	c1.2,20.5-43.5,93.4-43.5,93.4S399.1,201.4,398.5,191.9L398.5,191.9z M519.2,370.9c0,0,76-43.4,96.7-42.3
	c20.6,1.2,36.3,18.8,35.2,39.4c-1.1,20.7-19.7,33.9-39.4,35.4C592.1,405,519.2,370.9,519.2,370.9z M495.1,190.4
	c10-18.1,32.9-24.6,51-14.6c17.2,9.5,24.1,30.7,15.8,48.5c-9.3,18.6-86.5,65.6-86.5,65.6S487.6,205.3,495.1,190.4z M578.1,240.2
	c18.4-9.5,40.9-2.3,50.5,16c9.5,18.4,2.3,41.1-16.2,50.6c-14.8,7.7-108.5,14.2-108.5,14.2S559.5,249.7,578.1,240.2z"/>
<path class="st3" d="M518,518.7c8-8,8-19.8,0.7-27.2c-4.3-4.1-22.8-11.9-45.5-19.3c6.9,23,14.2,42.1,18.3,46.5
	C498.8,526,510.7,526,518,518.7C518,518.7,518,518.7,518,518.7z M355.3,581.2c3.8,3.8,9.1,5.8,14.6,5.5c10.3-0.7,18.1-9.6,17.5-19.9
	c0,0,0,0,0-0.1c-0.5-7.6-6.1-28.5-12.6-50.3c-13.5,23.8-24.3,45.8-24.7,53C350.4,573.8,352.2,578,355.3,581.2L355.3,581.2z
	 M450.7,569.5c9.1-4.4,13-15.8,8.5-25.2c-0.4-0.8-3.4-6.1-17.7-20.5c-5.3-5.2-10.6-10.3-16.1-15.3c-2,25.4-2.1,46.9,0.2,52.7
	c0.9,1.8,2.1,3.6,3.5,4.9C434.7,571.6,443.4,573,450.7,569.5L450.7,569.5z M562.1,424.7c-5.6-2.4-26.6-3-51.4-1.7
	c6.9,8.3,14.6,17.1,21.7,24.2c8.9,8.9,12.6,10.9,13.3,11.2c9.4,4.4,20.5,0.5,25-8.8c4.5-9.2,0.6-20.4-8.6-24.9
	C562.2,424.7,562.1,424.7,562.1,424.7z M327.7,501.7c-22.4,18.1-41.4,35-44.8,41.2c-4.7,9.1-1.2,20.3,7.9,25c0.1,0,0.2,0.1,0.2,0.1
	l0-0.1c9.1,4.7,20.4,1.2,25.2-8c0-0.1,0.1-0.1,0.1-0.2C319.4,553.7,323.9,529.5,327.7,501.7L327.7,501.7z M556.4,315
	c8.9-4.6,12.5-16,7.8-25.3c-4.8-9.1-16-12.6-25.1-8c-6.1,3.3-22.6,20.9-40.4,41.8C526.3,320.8,550.4,317.6,556.4,315L556.4,315z
	 M564.3,386.6c10.5-0.8,21.4-7.2,22-17.7c0.5-10.3-7.3-19.2-17.6-19.8c-6.9,0.2-28.9,9.8-52.7,21.9
	C537.9,380,557.8,386.8,564.3,386.6L564.3,386.6z M236.8,516.6c5.7,5.7,14.6,7.1,21.7,3.4c6.1-3.7,22-23.8,38.8-47.4
	c-26.5,5.3-49.4,10.8-55.9,14.1c-4.4,2.2-7.7,6.1-9.2,10.7c-1.5,4.8-1.1,9.9,1.3,14.5C234.2,513.6,235.4,515.2,236.8,516.6z
	 M283,311.7c4.3,4,22,10.8,43.6,17.1c-6.3-21.5-13.1-39.4-17.1-43.6c-7.3-7.3-19.2-7.3-26.5,0C275.7,292.5,275.7,304.4,283,311.7
	L283,311.7z M243.1,381.9c5.2,2.1,25.5,1.9,49.6-0.1c-6.5-7.8-13.3-15.4-20.4-22.6c-9.1-9.1-12.7-10.9-13.1-11.1
	c-9.2-4.6-20.5-0.9-25.1,8.3c0,0.1-0.1,0.1-0.1,0.2c-3.5,7.2-2,15.9,3.5,21.5C239,379.4,240.8,380.7,243.1,381.9L243.1,381.9z
	 M475.2,289.1c22.3-15.1,41.1-29.6,44.8-35.7c4.7-9.1,1-20.3-8.1-25c-0.1,0-0.1-0.1-0.2-0.1c-9.2-4.6-20.5-1-25.1,8.3
	C484.1,241.9,479.6,263.8,475.2,289.1z M341.5,259.7l0.3,0.6l0.3,0.6c0,0,1.8,3.2,9.6,11c6.7,6.7,15.1,14.1,23,20.7
	c2.4-23.8,2.8-44.1,0.5-49.7c-0.9-1.8-2.1-3.5-3.5-4.9c-5.6-5.7-14.2-7.1-21.3-3.6C341,239,337,250.2,341.5,259.7
	C341.5,259.7,341.5,259.7,341.5,259.7L341.5,259.7z M428.7,281.5c11.8-22,21-42.1,21.3-48.9c-0.7-10.2-9.5-17.9-19.7-17.2l-2.4,0.1
	c-4.1,0.8-7.8,2.9-10.6,6c-3.2,3.6-4.8,8.2-4.6,13C413.7,239.9,420.5,259.2,428.7,281.5L428.7,281.5z M236,415.9
	c-10.4-0.5-19.3,7.4-19.9,17.7c-0.3,5.3,1.8,10.5,5.5,14.2c3.2,3.3,7.5,5.3,12,5.5c7-0.3,28.3-10.6,51.4-23.5
	C263.9,422.5,243.5,416.3,236,415.9L236,415.9z"/>
<path class="st4" d="M325,324.9c-51.2,51.2-59.2,126.4-17.7,167.8c41.4,41.5,116.6,33.6,167.8-17.6c0,0,0.1-0.1,0.1-0.1
	c51.2-51.2,59.1-126.4,17.7-167.8C451.3,265.8,376.2,273.7,325,324.9L325,324.9z"/>
</svg>
