<?xml version="1.0" encoding="utf-8"?>
<!-- Generator: Adobe Illustrator 24.0.0, SVG Export Plug-In . SVG Version: 6.00 Build 0)  -->
<svg version="1.1" id="Layer_1" xmlns="http://www.w3.org/2000/svg" xmlns:xlink="http://www.w3.org/1999/xlink" x="0px" y="0px"
	 viewBox="0 0 800 800" style="enable-background:new 0 0 800 800;" xml:space="preserve">
<style type="text/css">
	.st0{fill:#558B2F;}
	.st1{fill:#AED581;}
	.st2{fill:#7CB342;}
</style>
<path class="st0" d="M646,372.6L427.5,152.1c0,0,102.5,32.9,212.7-75.4l83.2,83.2C613.1,270.1,646,372.6,646,372.6L646,372.6z"/>
<path class="st1" d="M653.8,612.4c38.7-96.7,21.3-216.6-50.3-317.2c-5.8-44.5,3.9-100.6,63.8-162.5c-60,60-118,71.6-162.5,63.8
	c-98.6-71.6-220.5-89-317.2-50.3L207,70.9c0,0-96.7,98.6-100.6,129.6C-5.7,314.6,11.7,515.7,149,651.1
	c135.4,135.4,338.4,154.7,450.6,40.6c30.9-1.9,129.6-98.6,129.6-98.6L653.8,612.4L653.8,612.4z"/>
<path class="st2" d="M435.2,502.2c0,0-58-32.9-36.7-100.6c-67.7,21.3-98.6-36.7-100.6-36.7c5.8,5.8,71.6,36.7,150.9-40.6l27.1,27.1
	C398.5,430.6,429.4,496.4,435.2,502.2z M176.1,515.7c-3.9-3.9-36.7-73.5,27.1-137.3l-27.1-27.1c-61.9,61.9-131.5,30.9-137.3,27.1
	c0,0,38.7,58,90.9,44.5C114.2,477,170.3,506,176.1,515.7z M421.7,761.3c-3.9-3.9-36.7-73.5,27.1-137.3l-27.1-27.1
	c-61.9,61.9-131.5,30.9-137.3,27.1c0,0,38.7,58,90.9,44.5C361.7,724.6,421.7,761.3,421.7,761.3z M149,651.1
	c13.5,13.5,29,27.1,46.4,38.7c-17.4-17.4-19.3-36.7,21.3-79.3l-27.1-27.1c-38.7,38.7-60,38.7-79.3,21.3
	C120,622.1,133.5,637.5,149,651.1L149,651.1z M729.2,593.1L702.1,566c-77.4,77.4-150.9,50.3-156.7,44.5
	C545.5,612.4,622.8,699.4,729.2,593.1L729.2,593.1z M189.6,254.6c-5.8-5.8-32.9-77.4,44.5-156.7L207,70.9
	C98.7,179.2,187.7,254.6,189.6,254.6L189.6,254.6z M646,372.6c0,1.9,1.9,5.8,1.9,7.7c-3.9-36.7,60-121.8,114.1-177.9L735,175.3
	c-13.5,15.5-56.1,58-87,106.4C634.4,333.9,646,372.6,646,372.6z M427.5,154c0,0,38.7,11.6,94.8-3.9c46.4-30.9,89-71.6,104.4-85.1
	L599.6,38c-56.1,56.1-141.2,118-177.9,114.1C421.7,152.1,425.6,152.1,427.5,154L427.5,154z M646,372.6
	c-3.9-3.9-67.7-123.8,48.3-239.8l-27.1-27.1c-116,116-235.9,50.3-239.8,48.3c1.9,0,63.8,92.8,168.3,52.2
	C555.1,308.8,646,370.6,646,372.6L646,372.6z"/>
</svg>
