<?xml version="1.0" encoding="utf-8"?>
<!-- Generator: Adobe Illustrator 24.0.0, SVG Export Plug-In . SVG Version: 6.00 Build 0)  -->
<svg version="1.1" id="Layer_1" xmlns="http://www.w3.org/2000/svg" xmlns:xlink="http://www.w3.org/1999/xlink" x="0px" y="0px"
	 viewBox="0 0 800 800" style="enable-background:new 0 0 800 800;" xml:space="preserve">
<style type="text/css">
	.st0{fill:#FF4081;}
	.st1{fill:#F48FB1;}
	.st2{fill:#D81B60;}
</style>
<path class="st0" d="M757.9,304.1v32.8H42.1v-32.8c0-139.2,170.4-177.8,357.9-177.8S757.9,164.9,757.9,304.1L757.9,304.1z
	 M757.9,495.9v-32.8H42.1v32.8c0,139.2,170.4,177.8,357.9,177.8S757.9,635.1,757.9,495.9L757.9,495.9z"/>
<path class="st1" d="M757.9,400c0,23.3-18.9,42.1-42.1,42.1c0,0,0,0,0,0H84.2c-23.3,0-42.1-18.9-42.1-42.1s18.9-42.1,42.1-42.1
	h631.7C739.1,357.9,757.9,376.7,757.9,400L757.9,400z"/>
<path class="st2" d="M779,315.8c0-11.6-9.4-21.1-21.1-21.1H42.1c-11.6,0-21.1,9.4-21.1,21.1l0,0v21.1c0,11.6,9.4,21.1,21.1,21.1
	c0,0,0,0,0,0h715.9c11.6,0,21.1-9.4,21.1-21.1L779,315.8L779,315.8z M779,463.2c0-11.6-9.4-21.1-21.1-21.1H42.1
	c-11.6,0-21.1,9.4-21.1,21.1v21.1c0,11.6,9.4,21.1,21.1,21.1h715.9c11.6,0,21.1-9.4,21.1-21.1L779,463.2L779,463.2z"/>
</svg>
