<?xml version="1.0" encoding="utf-8"?>
<!-- Generator: Adobe Illustrator 24.0.0, SVG Export Plug-In . SVG Version: 6.00 Build 0)  -->
<svg version="1.1" id="Layer_1" xmlns="http://www.w3.org/2000/svg" xmlns:xlink="http://www.w3.org/1999/xlink" x="0px" y="0px"
	 viewBox="0 0 800 800" style="enable-background:new 0 0 800 800;" xml:space="preserve">
<style type="text/css">
	.st0{fill:#77B255;}
	.st1{fill:#EA564B;}
	.st2{fill:#F97253;}
</style>
<path class="st0" d="M586.4,88.2c10.4-0.8,27.1-14.1,35.9-12.8c8.7,1.3,33.9,23.2,36,27.6c2.1,4.4-13.7,25.4-16.1,31.9
	c-2.3,6.5-13.8,5.2-32.5-11.7C590.9,106.4,586.4,88.2,586.4,88.2L586.4,88.2z"/>
<path class="st1" d="M283,79.6C381,22.2,525.8,23.3,577.9,67.1c34.8,29.3,63.4,51.7,96.4,64.9c43.6,17.3,79.6,68,95.1,116
	c21.1,65.1,36.2,271.1-173,399C462.1,729.1,216,762.5,187.9,748.7c-21.2-10.4-99.6-45-143.8-139.1S-10.6,251.4,283,79.6z"/>
<path class="st2" d="M391.4,68.1c113.1-31.9,197.6,46,145.4,51.6c-93.9,10-194.3,107.1-272.1,180.5C122,434.8,89.7,596.4,70.8,569.5
	C40.1,525.7,39.2,372.4,147.6,238S343.7,81.6,391.4,68.1L391.4,68.1z"/>
<path class="st0" d="M627.2,104.1c46.8,15,107.5,98.3,106.5,168.3c-2.5,186.5-89,258.4-89,258.4s-55-200.9-46.8-274.1
	c6-53.4,35.5-68.2,40.7-98.5C643.6,130.2,627.2,104.1,627.2,104.1L627.2,104.1z"/>
</svg>
