<?xml version="1.0" encoding="utf-8"?>
<!-- Generator: Adobe Illustrator 24.0.0, SVG Export Plug-In . SVG Version: 6.00 Build 0)  -->
<svg version="1.1" id="Layer_1" xmlns="http://www.w3.org/2000/svg" xmlns:xlink="http://www.w3.org/1999/xlink" x="0px" y="0px"
	 viewBox="0 0 800 800" style="enable-background:new 0 0 800 800;" xml:space="preserve">
<style type="text/css">
	.st0{fill:#EF6C00;}
	.st1{fill:#FFCC80;}
	.st2{fill:#BF360C;}
</style>
<path class="st0" d="M32.3,545.1c0,69.5,164.6,125.8,367.7,125.8s367.7-56.3,367.7-125.8l0,0c0-69.5-164.5-125.8-367.6-125.8
	C197,419.3,32.4,475.6,32.3,545.1C32.3,545.1,32.3,545.1,32.3,545.1L32.3,545.1z"/>
<path class="st0" d="M32.3,429c0,69.5,164.6,125.8,367.7,125.8S767.7,498.5,767.7,429c0-69.5-164.5-125.8-367.6-125.8
	C197,303.2,32.4,359.5,32.3,429C32.3,429,32.3,429,32.3,429L32.3,429z"/>
<path class="st0" d="M32.3,312.9c0,69.5,164.6,125.8,367.7,125.8s367.7-56.3,367.7-125.8c0-69.5-164.5-125.8-367.6-125.8
	C197,187.1,32.4,243.4,32.3,312.9C32.3,312.9,32.3,312.9,32.3,312.9L32.3,312.9z"/>
<path class="st0" d="M32.3,196.8c0,69.5,164.6,125.8,367.7,125.8s367.7-56.3,367.7-125.8C767.7,127.3,603.1,71,400.1,71
	C197,71,32.4,127.3,32.3,196.8C32.3,196.8,32.3,196.8,32.3,196.8L32.3,196.8z"/>
<path class="st1" d="M400,670.9c-193.5,0-351.8-51.2-366.2-116.1h-1.4C32.3,670.9,207.6,729,400,729s367.7-58.1,367.7-174.2h-1.4
	C751.8,619.7,593.5,670.9,400,670.9z"/>
<path class="st1" d="M400,554.8c-193.5,0-351.8-51.2-366.2-116.1h-1.4c0,116.1,175.3,174.2,367.7,174.2s367.7-58.1,367.7-174.2h-1.4
	C751.8,503.6,593.5,554.8,400,554.8z"/>
<path class="st1" d="M400,438.7c-193.5,0-351.8-51.2-366.2-116.1h-1.4c0,116.1,175.3,174.2,367.7,174.2s367.7-58.1,367.7-174.2h-1.4
	C751.8,387.5,593.5,438.7,400,438.7z"/>
<path class="st1" d="M400,322.6c-193.5,0-351.8-51.2-366.2-116.1h-1.4c0,116.1,175.3,174.2,367.7,174.2s367.7-58.1,367.7-174.2h-1.4
	C751.8,271.4,593.5,322.6,400,322.6z"/>
<path class="st2" d="M167.8,196.8c0,37.4,104,67.7,232.2,67.7s232.2-30.3,232.2-67.7s-104-67.7-232.2-67.7S167.8,159.4,167.8,196.8z
	"/>
<path class="st2" d="M535.5,564.5c0,26.7-21.7,48.4-48.4,48.4c-26.7,0-48.4-21.7-48.4-48.4V250c0-26.7,96.8-26.7,96.8,0V564.5z
	 M361.3,383.8c0,26.7-21.6,48.4-48.4,48.4c-26.7,0-48.4-21.6-48.4-48.4c0,0,0,0,0,0V245.9c0-26.7,96.8-26.7,96.8,0V383.8z
	 M438.7,187.1c0,21.4-17.3,38.7-38.7,38.7c-21.4,0-38.7-17.3-38.7-38.7v116.1c0-21.4,17.3-38.7,38.7-38.7
	c21.4,0,38.7,17.3,38.7,38.7V187.1z M535.5,167.8v116.1c0-21.4,17.4-38.7,27-38.7C562.5,245.2,535.5,189.1,535.5,167.8z
	 M264.5,167.8v116.1c0-21.4-17.4-38.7-27-38.7C237.5,245.2,264.5,189.1,264.5,167.8z"/>
</svg>
