<?xml version="1.0" encoding="utf-8"?>
<!-- Generator: Adobe Illustrator 24.0.0, SVG Export Plug-In . SVG Version: 6.00 Build 0)  -->
<svg version="1.1" id="Layer_1" xmlns="http://www.w3.org/2000/svg" xmlns:xlink="http://www.w3.org/1999/xlink" x="0px" y="0px"
	 viewBox="0 0 800 800" style="enable-background:new 0 0 800 800;" xml:space="preserve">
<style type="text/css">
	.st0{fill:#5C913B;}
	.st1{fill:#FF886C;}
	.st2{fill:#77B255;}
	.st3{fill:#DD2E44;}
</style>
<path class="st0" d="M31.4,126.3C31.4,126.3,135,20,244,20c130.2,0,168.8,105,168.8,105s13.3-85,106.3-85s147.5,66.4,147.5,66.4
	s-75.7,45.2-98.3,54.5c-59.5,24.5-241.8,75.7-326.9,54.5S31.4,126.3,31.4,126.3z"/>
<path class="st1" d="M391.5,144.9c0,0,22.2-19,127.6-19c139.1,0,255.1,102.3,255.1,274.8c0,245.1-318,380.1-318,380.1
	S30.1,757.9,30.1,399.5c0-211.7,143.5-275.9,233.9-275.9C369.3,123.6,391.5,144.9,391.5,144.9z"/>
<path class="st2" d="M31.4,126.3C31.4,126.3,135,20,244,20c130.2,0,168.8,105,168.8,105s-86.4,111.6-171.4,90.4
	S31.4,126.3,31.4,126.3L31.4,126.3z"/>
<path class="st3" d="M497.8,655.1c-11.7,0-21.3-9.5-21.2-21.3c0-4.2,1.2-8.3,3.6-11.8c0.3-0.5,38.9-61.8,38.9-200.8
	c0-137-97.3-216.5-98.3-217.3c-9.3-7.2-10.9-20.6-3.7-29.8s20.6-10.9,29.8-3.7c0.2,0.1,0.3,0.2,0.5,0.4
	c4.7,3.7,114.3,93.2,114.3,250.4c0,153.5-44.2,221.6-46.1,224.4C511.5,651.6,504.9,655.2,497.8,655.1z"/>
</svg>
