<?xml version="1.0" encoding="utf-8"?>
<!-- Generator: Adobe Illustrator 24.0.0, SVG Export Plug-In . SVG Version: 6.00 Build 0)  -->
<svg version="1.1" id="Layer_1" xmlns="http://www.w3.org/2000/svg" xmlns:xlink="http://www.w3.org/1999/xlink" x="0px" y="0px"
	 viewBox="0 0 800 800" style="enable-background:new 0 0 800 800;" xml:space="preserve">
<style type="text/css">
	.st0{fill:#FFC400;}
	.st1{fill:#795548;stroke:#795548;stroke-width:25;stroke-miterlimit:10;}
	.st2{fill:#795548;}
	.st3{fill:#4CAF50;}
	.st4{fill:#FFAB00;}
	.st5{fill:#FF9100;}
</style>
<path class="st0" d="M134.2,567c0,120.6,118.9,218.3,265.7,218.4c146.8,0,265.8-97.7,265.8-218.2c0,0,0-0.1,0-0.1
	c0-120.6-118.9-218.3-265.7-218.3S134.3,446.4,134.2,567C134.2,567,134.2,567,134.2,567L134.2,567z"/>
<path class="st0" d="M665.8,576.5c0-151.9-113.9-189.8-132.9-303.7c-12.1-72.4-59.5-132.9-132.9-132.9s-120.8,60.5-132.9,132.9
	c-19,113.9-132.9,151.9-132.9,303.7"/>
<path class="st1" d="M456.9,26c0,0-56.9,56.9-56.9,151.9"/>
<path class="st2" d="M381,177.9c0,10.5,8.5,19,19,19c10.5,0,19-8.5,19-19c0,0,0,0,0,0c0-10.5-8.5-19-19-19
	C389.5,158.9,381,167.4,381,177.9C381,177.9,381,177.9,381,177.9z"/>
<path class="st3" d="M400,197.5c0,0-23.7-238-265.8-152.5C160.3,292.6,400,197.5,400,197.5z"/>
<path class="st4" d="M661.5,529.4c-20.4-114.1-111.8-155.6-128.6-256.6c-9.8-58.5-42.7-109.3-93.7-126.5
	c41.3,27.2,55.7,136.4,55.7,202.5c0,75.9,75.9,113.9,75.9,189.8S494.9,709.4,381,709.4c-210.8,0-242.8-130-246.4-149.4
	c-0.1,2.3-0.4,4.6-0.4,7c0,1.4,0.2,2.8,0.3,4.1c0,1.8-0.3,3.5-0.3,5.4h0.6c6.1,116.1,122.3,208.8,265.2,208.8
	s259.1-92.7,265.2-208.8h0.6c0-1.9-0.2-3.5-0.3-5.4c0-1.4,0.3-2.7,0.3-4.1C665.8,554.1,664.2,541.6,661.5,529.4L661.5,529.4z"/>
<path class="st5" d="M494.9,538.5c0,10.5,8.5,19,19,19c10.5,0,19-8.5,19-19l0,0c0-10.5-8.5-19-19-19
	C503.4,519.6,494.9,528.1,494.9,538.5z"/>
<path class="st5" d="M419,538.5c0,10.5,8.5,19,19,19c10.5,0,19-8.5,19-19l0,0c0-10.5-8.5-19-19-19C427.5,519.6,419,528.1,419,538.5z
	"/>
<path class="st5" d="M456.9,595.5c0,10.5,8.5,19,19,19c10.5,0,19-8.5,19-19s-8.5-19-19-19C465.4,576.5,456.9,585,456.9,595.5z"/>
</svg>
