<?xml version="1.0" encoding="utf-8"?>
<!-- Generator: Adobe Illustrator 24.0.0, SVG Export Plug-In . SVG Version: 6.00 Build 0)  -->
<svg version="1.1" id="Layer_1" xmlns="http://www.w3.org/2000/svg" xmlns:xlink="http://www.w3.org/1999/xlink" x="0px" y="0px"
	 viewBox="0 0 800 800" style="enable-background:new 0 0 800 800;" xml:space="preserve">
<style type="text/css">
	.st0{fill:#D50000;}
	.st1{fill:#FFC107;}
	.st2{fill:#FFB300;}
	.st3{fill:#FF8F00;}
	.st4{fill:#FF1744;}
	.st5{fill:#B71C1C;}
</style>
<path class="st0" d="M765.3,381.7c0-1.7-1.7-3.3-1.7-5c10-13.3,11.7-31.6,5-46.6c-8.3-20-26.6-31.6-46.6-30
	c6.7-18.3,3.3-40-13.3-54.9c-15-13.3-36.6-16.7-53.3-10c0-18.3-11.7-36.6-30-45c-18.3-8.3-38.3-5-51.6,6.7c-5-16.7-20-31.6-38.3-35
	c-18.3-3.3-36.6,3.3-48.3,16.7c-8.3-15-23.3-26.6-41.6-28.3s-35,8.3-45,21.6c-10-15-26.6-23.3-45-21.6s-35,11.7-41.6,26.6
	c-11.7-13.3-30-20-48.3-16.7c-18.3,3.3-33.3,18.3-38.3,35c-13.3-11.7-33.3-15-51.6-6.7s-30,25-30,45c-18.3-8.3-38.3-5-53.3,8.3
	c-15,13.3-20,35-13.3,53.3c-20,0-38.3,11.7-46.6,30c-6.7,15-5,33.3,3.3,46.6c0,3.3-1.7,5-1.7,8.3c-1.7,6.7-1.7,13.3,0,20
	c-10,18.3-8.3,40,6.7,54.9c15,18.3,40,21.6,59.9,11.7c1.7,20,15,36.6,35,43.3c18.3,5,36.6,1.7,50-11.7c6.7,16.7,20,28.3,38.3,31.6
	s35-3.3,46.6-16.7c6.7,15,21.6,26.6,40,28.3h5c16.7,0,31.6-8.3,41.6-21.6c1.7,3.3,5,6.7,8.3,10c10,10,21.6,15,35,15h3.3
	c13.3,0,26.6-5,35-15c3.3-3.3,5-6.7,6.7-10c10,13.3,26.6,23.3,45,21.6c18.3-1.7,33.3-13.3,40-28.3c11.7,13.3,28.3,20,46.6,16.7
	c18.3-3.3,33.3-15,38.3-31.6c13.3,11.7,31.6,16.7,50,11.7c20-6.7,33.3-23.3,35-41.6c20,10,45,6.7,59.9-10c15-16.7,16.7-40,6.7-58.3
	C767,396.7,767,390,765.3,381.7L765.3,381.7z"/>
<path class="st1" d="M600.5,431.6c-83.3,63.3-199.8,16.7-199.8,16.7s-118.2,46.6-199.8-16.7C84.3,493.2,1,381.7,1,381.7
	s48.3,163.2,116.6,233.1c0,0,133.2,50,283.1,50s283.1-50,283.1-50c68.3-69.9,116.6-233.1,116.6-233.1S718.7,494.9,600.5,431.6z"/>
<path class="st2" d="M400.7,448.3l33.3,16.7l-33.3,199.8l-33.3-199.8L400.7,448.3z M167.5,431.6l66.6,216.5V448.3l-33.3-16.7
	L167.5,431.6L167.5,431.6z M600.5,431.6l-33.3,16.7v199.8l66.6-216.5H600.5L600.5,431.6z"/>
<path class="st3" d="M790.3,366.7c-8.3-3.3-18.3,1.7-21.6,10c0,0-13.3,35-51.6,50c-30,11.7-66.6,8.3-109.9-10l-8.3-3.3l-8.3,5
	c-83.3,58.3-181.5,16.7-184.8,15l-5-3.3l-6.7,3.3c-1.7,0-99.9,43.3-184.8-15l-8.3-5l-6.7,3.3c-43.3,18.3-79.9,21.6-109.9,10
	c-36.6-15-51.6-50-51.6-50c-3.3-8.3-13.3-13.3-21.6-10C2.7,370-2.3,380,1,388.3c0,1.7,20,48.3,69.9,68.3
	c36.6,15,78.3,13.3,126.5-6.7c33.3,26.6,71.6,36.6,104.9,36.6c43.3,0,81.6-13.3,98.2-20c15,6.7,53.3,20,98.2,20
	c35,0,73.3-8.3,104.9-36.6c48.3,18.3,89.9,21.6,126.5,6.7c50-21.6,68.3-66.6,69.9-68.3C801.9,380,798.6,370,790.3,366.7L790.3,366.7
	z"/>
<path class="st4" d="M334.1,256.8c0,23.3-18.3,41.6-41.6,41.6c-23.3,0-41.6-18.3-41.6-41.6s18.3-41.6,41.6-41.6
	C315.7,215.2,334.1,235.2,334.1,256.8L334.1,256.8z M467.3,198.5c-18.3,0-33.3,15-33.3,33.3s15,33.3,33.3,33.3
	c18.3,0,33.3-15,33.3-33.3S485.6,198.5,467.3,198.5z M617.1,265.1c-28.3,0-50,21.6-50,50c0,28.3,21.6,50,50,50s50-21.6,50-50
	C667.1,288.4,645.4,265.1,617.1,265.1z M400.7,298.4c-28.3,0-50,21.6-50,50s21.6,50,50,50s50-21.6,50-50
	C450.6,321.7,429,298.4,400.7,298.4z M159.2,298.4c-23.3,0-41.6,18.3-41.6,41.6s18.3,41.6,41.6,41.6s41.6-18.3,41.6-41.6
	C200.8,318.4,182.5,298.4,159.2,298.4L159.2,298.4z"/>
<path class="st5" d="M250.8,306.8c0,23.3-18.3,41.6-41.6,41.6s-41.6-18.3-41.6-41.6c0-23.3,18.3-41.6,41.6-41.6
	S250.8,285.1,250.8,306.8z M267.4,365c0,18.3,15,33.3,33.3,33.3s33.3-15,33.3-33.3s-15-33.3-33.3-33.3S267.4,346.7,267.4,365z
	 M517.2,281.8c-28.3,0-50,21.6-50,50c0,28.3,21.6,50,50,50c28.3,0,50-21.6,50-50C567.2,305.1,545.5,281.8,517.2,281.8z M683.7,365
	c18.3,0,33.3-15,33.3-33.3s-15-33.3-33.3-33.3c-18.3,0-33.3,15-33.3,33.3C650.4,351.7,665.4,365,683.7,365z M409,181.9
	c-23.3,0-41.6,18.3-41.6,41.6s18.3,41.6,41.6,41.6c23.3,0,41.6-18.3,41.6-41.6S432.3,181.9,409,181.9L409,181.9z"/>
</svg>
