<?xml version="1.0" encoding="utf-8"?>
<!-- Generator: Adobe Illustrator 24.0.0, SVG Export Plug-In . SVG Version: 6.00 Build 0)  -->
<svg version="1.1" id="Layer_1" xmlns="http://www.w3.org/2000/svg" xmlns:xlink="http://www.w3.org/1999/xlink" x="0px" y="0px"
	 viewBox="0 0 800 800" style="enable-background:new 0 0 800 800;" xml:space="preserve">
<style type="text/css">
	.st0{fill:#FFD54F;}
	.st1{fill:#FF3D00;}
	.st2{fill:#3E2723;}
	.st3{fill:#8D6E63;}
	.st4{fill:#689F38;}
	.st5{fill:#FF9800;}
</style>
<path class="st0" d="M317.9,30.7L30.7,769.4l738.6-287.3L317.9,30.7z"/>
<path class="st1" d="M215.4,564.2c-56.7,0-102.6,45.9-102.6,102.6l0,0c0,23.5,8.2,45,21.6,62.3L317,658
	C312.5,605.6,269,564.2,215.4,564.2z"/>
<path class="st1" d="M235.9,287.2c0,51,41.3,92.3,92.3,92.3s92.3-41.3,92.3-92.3s-41.3-92.3-92.3-92.3S235.9,236.2,235.9,287.2z"/>
<path class="st2" d="M482.1,318c-34,0-61.6,27.6-61.6,61.6c0,33.9,27.6,61.5,61.6,61.5s61.6-27.6,61.6-61.5
	C543.6,345.6,516.1,318,482.1,318z M482.1,410.3c-17,0.4-31.1-13-31.6-30c-0.4-17,13-31.1,30-31.6c0.5,0,1.1,0,1.6,0
	c17,0.4,30.4,14.6,30,31.5C511.6,396.7,498.4,409.9,482.1,410.3L482.1,410.3z M235.9,420.6c-34,0-61.6,27.6-61.6,61.6
	c0,33.9,27.6,61.5,61.6,61.5s61.6-27.6,61.6-61.5C297.4,448.2,269.9,420.6,235.9,420.6z M235.9,512.9c-17,0.4-31.1-13-31.6-30
	c-0.4-17,13-31.1,30-31.6c0.5,0,1.1,0,1.6,0c17,0.4,30.4,14.6,30,31.6C265.4,499.3,252.2,512.5,235.9,512.9z"/>
<path class="st3" d="M520.5,574.9c-8-21.2-31.6-32-52.8-24c-21.2,8-128,67.6-120.1,88.8c0.7,1.9,2.6,3.3,4.9,4.5l169-65.7
	C521.1,577.3,520.9,576.1,520.5,574.9L520.5,574.9z"/>
<path class="st3" d="M424.4,611c-10-31.2-6.3-59.4-6.3-59.4c0.7-0.9,0.7-1.9,0.6-3c1.2-4,1-8.2-0.3-12.1c-4-10.6-15.8-16-26.4-12
	c-2.6,1-5,2.5-7,4.4c-37.1,23.5-52.7,69.7-37.4,110.8c0.7,1.9,1.7,3.5,2.6,5.4l76-29.5C425.6,614,424.9,612.6,424.4,611L424.4,611z"
	/>
<path class="st4" d="M441,494.4c0,0-11-110.2-123.1-70.6C330,538.4,441,494.4,441,494.4z M596.9,420.6c0,0-110.2,11-70.6,123.1
	C640.9,531.6,596.9,420.6,596.9,420.6z"/>
<path class="st5" d="M766.4,465.5c-19-44.7-63.1-175.2-159.8-271.8c-94-94.1-218.3-145.8-273.5-160.7c-17.2-4.6-21-5.6-27.8,11.6
	c-5.5,13.9-21.1,61.3-28.8,83.5c-1.1,3.1-1.9,6.4-2.5,9.6c178.7,69.1,320,210.5,388.8,389.3c0.5-0.1,1,0,1.5-0.2
	c14.3-4.5,71.2-24.4,86.3-29.5C765.8,492.1,774.1,483.4,766.4,465.5L766.4,465.5z"/>
</svg>
