<?xml version="1.0" encoding="utf-8"?>
<!-- Generator: Adobe Illustrator 24.0.0, SVG Export Plug-In . SVG Version: 6.00 Build 0)  -->
<svg version="1.1" id="Layer_1" xmlns="http://www.w3.org/2000/svg" xmlns:xlink="http://www.w3.org/1999/xlink" x="0px" y="0px"
	 viewBox="0 0 800 800" style="enable-background:new 0 0 800 800;" xml:space="preserve">
<style type="text/css">
	.st0{fill:#FFFFFF;}
	.st1{fill:#9C27B0;}
	.st2{fill:#4A148C;}
	.st3{fill:#4CAF50;}
</style>
<path class="st0" d="M466.7,66.7c0,0-50,51.7-50,150"/>
<path class="st1" d="M679.3,436.2C679.3,590.8,554.6,790,400,790S120.7,590.8,120.7,436.2c0-182.5,81.9-316.6,297.9-242.1
	C593.7,117.8,679.3,281.7,679.3,436.2z"/>
<path class="st2" d="M565.7,484.7c3.7-9.3,3.7-20.5,3.7-29.8l3.7-29.8v-31.7c0-11.2,0-20.5-1.9-29.8c-1.9-9.3-3.7-20.5-5.6-29.8
	c-1.9-9.3-5.6-18.6-7.4-27.9c-5.6-18.6-13-35.4-20.5-54c-9.3-14.9-16.8-31.7-26.1-44.7c-7.4-11.2-14.9-22.3-24.2-31.7
	c-22.3,1.9-44.7,7.4-70.8,18.6c96.8,74.5,117.3,221.6,117.3,230.9V453c0,9.3,0,18.6-1.9,27.9c-1.9,9.3-1.9,18.6-3.7,27.9
	c0,9.3-1.9,18.6-3.7,26.1c-3.7,16.8-7.4,33.5-13,50.3c-5.6,14.9-11.2,29.8-16.8,42.8c-1.9,7.4-5.6,13-7.4,18.6
	c-3.7,5.6-5.6,11.2-9.3,16.8c-5.6,11.2-9.3,20.5-13,27.9c-5.6,14.9-9.3,24.2-9.3,24.2s5.6-7.4,14.9-22.3
	c5.6-7.4,11.2-14.9,16.8-26.1c3.7-5.6,7.4-11.2,11.2-14.9c3.7-5.6,5.6-11.2,9.3-18.6c7.4-13,14.9-27.9,22.3-42.8
	c7.4-14.9,13-33.5,18.6-50.3c3.7-9.3,5.6-18.6,7.4-27.9C560.1,503.3,563.9,494,565.7,484.7L565.7,484.7z"/>
<path class="st3" d="M418.6,194.2c0,0-24.2-232.8-260.7-149C184,287.3,418.6,194.2,418.6,194.2z"/>
</svg>
