<?xml version="1.0" encoding="utf-8"?>
<!-- Generator: Adobe Illustrator 24.0.0, SVG Export Plug-In . SVG Version: 6.00 Build 0)  -->
<svg version="1.1" id="Layer_1" xmlns="http://www.w3.org/2000/svg" xmlns:xlink="http://www.w3.org/1999/xlink" x="0px" y="0px"
	 viewBox="0 0 800 800" style="enable-background:new 0 0 800 800;" xml:space="preserve">
<style type="text/css">
	.st0{fill:#FF9800;}
	.st1{fill:#D66100;}
	.st2{fill:#FFF9C4;}
</style>
<path class="st0" d="M99,716c-25.9-0.1-48.5-17.7-55-42.8c-8-30.7,10.2-62.1,40.5-70.2c1.2-0.4,25.9-7.4,61.1-21.2
	C52.3,509.6,21.4,402.6,20.8,333.5C23.1,150.1,170.9,84,269.6,84c40,0,88,10.9,130.9,35.8C435.7,97.8,480,84,535.1,84
	c71.7,0,130,22.4,173.3,66.7c70.2,71.8,71,171.8,70.8,183c0,4,0,127.6-92.5,221.9c-10,10.1-20.6,19.5-31.7,28.2
	c19.9,6.7,41.4,13.1,64.6,19c30.5,7.7,49,38.9,41.4,69.7c-7.6,30.8-38.6,49.6-69,41.8c-72-18.2-131.1-41-179.7-66.5
	c-33.8,7.2-70.5,10.8-109.8,10.8c-44.5,0-84.2-4.6-119.6-13c-84.9,45.6-162.2,66.7-169.3,68.6C108.6,715.3,103.8,716,99,716L99,716z
	 M473,480.8c16.7,16.1,34.9,30.5,54.4,43c132.6-49,137.9-173.5,138-190.8c0-22.7-6.5-134.1-130.4-134.1c-19,0-35.3,2.5-49.2,7
	c18.8,34,30.3,75.9,30.3,127C516.1,389.1,499.5,438.3,473,480.8L473,480.8z M269.3,199c-21.6,0.3-133.1,8.3-134.7,134.8
	c0.4,15.7,7.7,135.8,134,187c20.7-13,40.3-27.6,58.5-43.7c-38.8-70.5-39.2-130.5-38.5-145.5c0.2-38,9.9-82.6,31.5-123.5
	C303.7,202.4,286.6,199.3,269.3,199L269.3,199z"/>
<path class="st0" d="M705.8,716c-4.6,0-9.2-0.6-13.8-1.8C290.3,612.8,287.2,364.3,288.6,331.5C289.3,231.4,355.2,84,535.1,84
	c31.4,0,56.9,25.8,56.9,57.5c0,31.7-25.5,57.4-56.9,57.4c-129,0-132.7,120.3-132.7,134c0,1.5-0.1,3.1-0.2,4.7
	c-0.3,6.6-5.2,183.6,317.3,265.1c30.5,7.7,49,38.9,41.4,69.7C754.7,697.9,732,715.9,705.8,716z"/>
<path class="st1" d="M527.5,523.7c33,21.6,74.8,42.2,127.5,60c11.2-8.6,21.8-18,31.7-28.1c0.5-0.5,0.9-1,1.3-1.4
	c-49-15-88.3-32.1-119.9-50.1C556,511.4,542.7,518.1,527.5,523.7L527.5,523.7z M320.1,208c-0.2,0.2-0.3,0.5-0.4,0.8
	c20.8-39.8,53.1-75.9,98.9-98.9c-6.2,3-12.3,6.4-18.1,10c-12.8-7.3-26.1-13.6-40-18.7c-35.2,27.1-60.9,61.7-78.5,98.5
	C295,200.9,307.8,203.7,320.1,208z M145.6,581.8c34.9-13.7,80.1-34.1,122.9-61.1c-13.9-5.6-27.2-12.6-39.7-20.8
	c-42.3,24.1-85.6,42-115.6,53.1C123.1,563,133.9,572.7,145.6,581.8L145.6,581.8z M426.4,592.1c28.5-25.3,54.5-54.1,75.6-86.4
	c-10.1-7.7-19.8-16-28.9-24.9c1.6-2.6,3.1-5.3,4.6-7.9c-48.4,83.1-134.5,142.2-211,181c5.4-2.8,10.8-5.6,16.2-8.4
	c19.2,4.5,38.6,7.8,58.2,9.8c39.9,2.8,58.9,6.1,110.5,1.1c20.4-1.6,40.6-4.5,60.6-8.7c6.1,3.2,12.5,6.4,19,9.5
	C489.4,637.1,455,615,426.4,592.1L426.4,592.1z M501.7,243.2c-4.2-12.8-9.5-25.3-15.9-37.2c1-0.3,2.3-0.4,3.3-0.8l-1.1-2.4
	c-3.4,1.6-84,39.4-103.1,133.5c-11.8,57.9-60.6,94.6-74.8,104.2c4.7,11.8,10,23.8,17,36.4c-0.3,0.3-0.6,0.4-0.8,0.7l1.1,1.9
	c3.3-1.9,81.3-48.3,98.8-134.8C439,281.7,487.4,251,501.7,243.2L501.7,243.2z"/>
<path class="st2" d="M106.2,379c11.6,0.7,20.5,10.6,19.9,22.2c-0.7,11.6-10.6,20.5-22.2,19.9c-11.6-0.7-40.9-23.4-40.9-23.4
	S94.5,378.3,106.2,379z M737.1,315.7c0,11.6-9.4,21.1-21.1,21.1c-11.6,0-21.1-9.4-21.1-21.1c0-11.6,21.1-42.1,21.1-42.1
	S737.1,304.1,737.1,315.7L737.1,315.7z M165.9,173.2c-5.6,10.2-18.5,13.9-28.6,8.2c-9.8-5.4-13.6-17.5-8.8-27.6
	c5.4-10.3,38.1-27.7,38.1-27.7S171.3,162.9,165.9,173.2z M555.9,158.7c-7.9,8.6-21.2,9.1-29.8,1.3s-9.1-21.2-1.3-29.8
	c7.9-8.6,44-16.8,44-16.8S563.7,150.1,555.9,158.7z M683.7,178.5c11.6-0.4,21.3,8.7,21.7,20.3c0,0,0,0.1,0,0.1
	c0.4,11.6-8.7,21.4-20.4,21.7s-42.8-19.7-42.8-19.7S672.1,178.8,683.7,178.5L683.7,178.5z M357.2,252.5c11.6-0.4,21.3,8.7,21.7,20.4
	c0,0,0,0,0,0.1c0.4,11.6-8.8,21.4-20.4,21.7c-11.6,0.4-42.8-19.7-42.8-19.7S345.6,252.9,357.2,252.5L357.2,252.5z M315.8,335.1
	c1-11.6,11.3-20.1,22.9-19.1c11.6,1,20.1,11.3,19.1,22.9c-1.1,11.6-24.8,40.1-24.8,40.1S314.7,346.7,315.8,335.1z M230.8,126.1
	c11.6-0.4,21.3,8.7,21.7,20.4c0,0,0,0,0,0.1c0.4,11.6-8.8,21.4-20.4,21.7c-11.6,0.4-42.8-19.8-42.8-19.8S219.2,126.5,230.8,126.1
	L230.8,126.1z M700.4,462.7c-11.3,2.9-22.7-3.9-25.6-15.2c-2.9-11.3,3.9-22.7,15.2-25.6c0.5-0.1,1-0.2,1.5-0.3
	c11.4-2.5,45.7,11.6,45.7,11.6S711.8,460.2,700.4,462.7z M425.6,209.9c-11.4,2.5-22.6-4.7-25-16.1c-2.5-11.4,4.7-22.6,16.1-25
	c11.4-2.5,45.7,11.6,45.7,11.6S437,207.4,425.6,209.9z M89.4,272.9c-11.4,2.5-22.6-4.7-25-16.1c-2.5-11.4,4.7-22.6,16.1-25
	c11.4-2.5,45.7,11.6,45.7,11.6S100.8,270.4,89.4,272.9z M610.6,146.3c0.5,11.6-8.5,21.4-20.2,21.9c-11.6,0.5-21.4-8.5-22-20.2
	c-0.5-11.7,19.3-43,19.3-43S610.2,134.7,610.6,146.3L610.6,146.3z"/>
</svg>
