<?xml version="1.0" encoding="utf-8"?>
<!-- Generator: Adobe Illustrator 24.0.0, SVG Export Plug-In . SVG Version: 6.00 Build 0)  -->
<svg version="1.1" id="Layer_1" xmlns="http://www.w3.org/2000/svg" xmlns:xlink="http://www.w3.org/1999/xlink" x="0px" y="0px"
	 viewBox="0 0 800 800" style="enable-background:new 0 0 800 800;" xml:space="preserve">
<style type="text/css">
	.st0{fill:#388E3C;}
	.st1{fill:#4CAF50;}
	.st2{fill:#FF4081;}
	.st3{fill:#C51162;}
</style>
<path class="st0" d="M467.8,247.5c0,0-8.5-16.9,16.9-33.9c83-47.4,145.7-8.5,186.4-50.8c-3.4,64.4-33.9,84.7-33.9,84.7H467.8z
	 M416.9,259.3c-44.1-140.6,54.2-198.2,59.3-199.9l-8.5-15.2l8.5,15.2l-16.9-30.5c-1.7,0-127.1,72.9-76.3,240.6L416.9,259.3
	L416.9,259.3z M281.4,247.5v-16.9c-13.6-93.2-91.5-32.2-169.4-67.8c10.2,45.8,50.8,84.7,50.8,84.7L281.4,247.5L281.4,247.5z"/>
<path class="st1" d="M535.6,264.4H416.9c-5.1-16.9-8.5-39-10.2-54.2c22-33.9,93.2-28.8,145.7-115.2
	C593.2,188.2,535.6,264.4,535.6,264.4L535.6,264.4z M383.1,264.4c0,0,6.8,11.9,0-33.9c-13.6-94.9-94.9-59.3-135.6-169.4
	c-83,133.9,16.9,203.3,16.9,203.3H383.1L383.1,264.4z"/>
<path class="st2" d="M162.8,552.5c0,46.8,37.9,84.7,84.7,84.7s84.7-37.9,84.7-84.7c0-46.8-37.9-84.7-84.7-84.7
	S162.8,505.7,162.8,552.5C162.8,552.5,162.8,552.5,162.8,552.5L162.8,552.5z"/>
<path class="st2" d="M315.3,569.4c0,46.8,37.9,84.7,84.7,84.7s84.7-37.9,84.7-84.7c0-46.8-37.9-84.7-84.7-84.8
	S315.3,522.6,315.3,569.4C315.3,569.4,315.3,569.4,315.3,569.4L315.3,569.4z"/>
<path class="st2" d="M467.8,552.5c0,46.8,37.9,84.7,84.7,84.8c46.8,0,84.7-37.9,84.8-84.7c0,0,0,0,0-0.1c0-46.8-37.9-84.7-84.7-84.8
	S467.8,505.6,467.8,552.5C467.8,552.4,467.8,552.5,467.8,552.5z"/>
<path class="st2" d="M383.1,450.8c0,46.8,37.9,84.7,84.7,84.7c46.8,0,84.7-37.9,84.7-84.7c0-46.8-37.9-84.7-84.7-84.8
	S383.1,404,383.1,450.8C383.1,450.8,383.1,450.8,383.1,450.8L383.1,450.8z"/>
<path class="st2" d="M518.6,433.9c0,46.8,37.9,84.7,84.7,84.8c46.8,0,84.7-37.9,84.8-84.7c0,0,0,0,0-0.1c0-46.8-37.9-84.7-84.7-84.8
	C556.6,349.1,518.6,387,518.6,433.9C518.6,433.8,518.6,433.9,518.6,433.9z"/>
<path class="st2" d="M111.9,433.9c0,46.8,37.9,84.7,84.7,84.7s84.7-37.9,84.7-84.7c0-46.8-37.9-84.7-84.7-84.7
	C149.9,349.1,111.9,387.1,111.9,433.9C111.9,433.9,111.9,433.9,111.9,433.9L111.9,433.9z"/>
<path class="st2" d="M247.5,450.8c0,46.8,37.9,84.7,84.7,84.8c46.8,0,84.7-37.9,84.8-84.7c0,0,0,0,0-0.1c0-46.8-37.9-84.7-84.7-84.8
	S247.5,404,247.5,450.8C247.5,450.8,247.5,450.8,247.5,450.8z"/>
<path class="st2" d="M95,315.3c0,46.8,37.9,84.7,84.7,84.8s84.7-37.9,84.8-84.7c0,0,0,0,0-0.1c0-46.8-37.9-84.7-84.7-84.7
	C132.9,230.5,95,268.5,95,315.3C95,315.3,95,315.3,95,315.3L95,315.3z"/>
<path class="st2" d="M535.6,315.3c0,46.8,37.9,84.7,84.7,84.8s84.7-37.9,84.8-84.7c0,0,0,0,0-0.1c0-46.8-37.9-84.7-84.7-84.8
	C573.5,230.5,535.6,268.4,535.6,315.3C535.6,315.2,535.6,315.2,535.6,315.3z"/>
<path class="st2" d="M196.7,315.3c0,46.8,37.9,84.7,84.7,84.8s84.7-37.9,84.8-84.7c0,0,0,0,0-0.1c0-46.8-37.9-84.7-84.7-84.7
	C234.6,230.5,196.7,268.5,196.7,315.3C196.7,315.3,196.7,315.3,196.7,315.3L196.7,315.3z"/>
<path class="st2" d="M433.9,315.3c0,46.8,37.9,84.7,84.7,84.8c46.8,0,84.7-37.9,84.8-84.7c0,0,0,0,0-0.1c0-46.8-37.9-84.7-84.7-84.8
	C471.9,230.5,433.9,268.4,433.9,315.3C433.9,315.2,433.9,315.2,433.9,315.3z"/>
<path class="st2" d="M315.3,315.3c0,46.8,37.9,84.7,84.7,84.7s84.7-37.9,84.7-84.7c0-46.8-37.9-84.7-84.7-84.8
	C353.2,230.5,315.3,268.4,315.3,315.3C315.3,315.2,315.3,315.2,315.3,315.3L315.3,315.3z"/>
<path class="st2" d="M315.3,688c0,46.8,37.9,84.7,84.7,84.7s84.7-37.9,84.7-84.7c0-46.8-37.9-84.7-84.7-84.8S315.3,641.2,315.3,688
	C315.3,688,315.3,688,315.3,688L315.3,688z"/>
<path class="st2" d="M400,637.2c0,46.8,37.9,84.7,84.7,84.8c46.8,0,84.7-37.9,84.8-84.7c0,0,0,0,0-0.1c0-46.8-37.9-84.7-84.7-84.8
	C438,552.4,400,590.4,400,637.2C400,637.2,400,637.2,400,637.2z"/>
<path class="st2" d="M230.6,637.2c0,46.8,37.9,84.7,84.7,84.8c46.8,0,84.7-37.9,84.8-84.7c0,0,0,0,0-0.1c0-46.8-37.9-84.7-84.7-84.8
	C268.5,552.4,230.6,590.4,230.6,637.2C230.6,637.2,230.6,637.2,230.6,637.2z"/>
<path class="st3" d="M400,637.2c-3.4-1.7-5.1-1.7-6.8-1.7C394.9,637.2,398.3,637.2,400,637.2z"/>
<path class="st3" d="M705,315.3c0-47.4-37.3-84.7-84.7-84.7c28.8,0,50.8,55.9,50.8,84.7c0,28.8-22,50.8-50.8,50.8
	c-10.2,0-20.3-3.4-28.8-8.5c6.8-11.9,11.9-27.1,11.9-42.4c0-20.3-6.8-39-18.6-52.5c8.5-16.9,22-32.2,35.6-32.2
	c-18.6,0-37.3,6.8-50.8,16.9c-13.6-10.2-32.2-16.9-50.8-16.9c28.8,0,50.8,55.9,50.8,84.7c0,28.8-22,50.8-50.8,50.8
	c-16.9,0-30.5-8.5-40.7-20.3c3.4-10.2,6.8-20.3,6.8-30.5c0-13.6-3.4-25.4-8.5-37.3c8.5-23.7,23.7-47.4,42.4-47.4
	c-23.7,0-44.1,10.2-59.3,23.7c-15.3-13.6-35.6-23.7-59.3-23.7c28.8,0,50.8,55.9,50.8,84.7c0,28.8-22,50.8-50.8,50.8
	s-50.8-22-50.8-50.8c0-28.8,22-84.7,50.8-84.7c-23.7,0-44.1,10.2-59.3,23.7c-15.3-13.6-35.6-23.7-59.3-23.7
	c18.6,0,33.9,23.7,42.4,47.4c-5.1,11.9-8.5,23.7-8.5,37.3c0,10.2,1.7,22,6.8,30.5c-10.2,11.9-23.7,20.3-40.7,20.3
	c-28.8,0-50.8-22-50.8-50.8s22-84.7,50.8-84.7c-18.6,0-37.3,6.8-50.8,16.9c-13.6-10.2-32.2-16.9-50.8-16.9
	c13.6,0,27.1,13.6,35.6,32.2c-11.9,13.6-18.6,32.2-18.6,52.5c0,15.3,3.4,28.8,11.9,42.4c-8.5,5.1-16.9,8.5-28.8,8.5
	c-28.8,0-50.8-22-50.8-50.8s22-84.7,50.8-84.7c-47.4,0-84.7,37.3-84.7,84.7c0,27.1,13.6,52.5,33.9,67.8
	c-10.2,13.6-16.9,32.2-16.9,50.8c0,37.3,25.4,69.5,59.3,81.3c-5.1,10.2-8.5,23.7-8.5,37.3c0,40.7,28.8,74.6,67.8,83v1.7
	c0,47.4,37.3,84.7,84.7,84.7h6.8c13.6,30.5,42.4,50.8,77.9,50.8s64.4-22,77.9-50.8h6.8c47.4,0,84.7-37.3,84.7-84.7v-1.7
	c39-8.5,67.8-42.4,67.8-83c0-13.6-3.4-27.1-10.2-37.3c35.6-10.2,61-42.4,61-81.3c0-18.6-6.8-37.3-16.9-50.8
	C691.4,367.8,705,342.4,705,315.3L705,315.3z M435.6,391.5c8.5-3.4,16.9-10.2,23.7-16.9c11.9,11.9,27.1,20.3,44.1,23.7
	c8.5,16.9,15.3,39,15.3,52.5c0,28.8-22,50.8-50.8,50.8c-28.8,0-50.8-22-50.8-50.8C416.9,435.6,423.7,410.2,435.6,391.5z M400,501.7
	c10.2,13.6,25.4,25.4,42.4,30.5c5.1,13.6,8.5,27.1,8.5,39c0,28.8-22,50.8-50.8,50.8s-50.8-22-50.8-50.8c0-10.2,3.4-23.7,8.5-39
	C374.6,525.4,389.8,515.2,400,501.7z M296.6,398.3c16.9-3.4,32.2-11.9,44.1-23.7c6.8,6.8,15.3,11.9,23.7,16.9
	c11.9,18.6,18.6,42.4,18.6,59.3c0,28.8-22,50.8-50.8,50.8c-28.8,0-50.8-22-50.8-50.8C281.4,437.3,286.5,416.9,296.6,398.3z
	 M145.8,433.9c0-10.2,3.4-23.7,8.5-39c8.5,3.4,16.9,5.1,25.4,5.1c18.6,0,37.3-6.8,50.8-16.9c1.7,1.7,3.4,1.7,5.1,3.4
	c8.5,16.9,11.9,35.6,11.9,47.4c0,28.8-22,50.8-50.8,50.8S145.8,462.7,145.8,433.9z M247.5,603.3c-28.8,0-50.8-22-50.8-50.8
	c0-10.2,3.4-22,6.8-33.9c22-1.7,40.7-11.9,54.2-27.1c8.5,15.3,20.3,27.1,35.6,33.9c3.4,10.2,5.1,20.3,5.1,27.1
	C298.3,581.3,276.3,603.3,247.5,603.3L247.5,603.3z M264.4,637.2v-1.7c23.7-5.1,42.4-18.6,54.2-39c3.4,8.5,6.8,16.9,13.6,23.7
	l22,20.3l10.2,5.1c-3.4,23.7-23.7,42.4-49.1,42.4C286.5,688,264.4,666,264.4,637.2L264.4,637.2z M400,738.9
	c-18.6,0-35.6-11.9-44.1-27.1c22-11.9,37.3-32.2,42.4-57.6h3.4c5.1,25.4,22,45.8,42.4,57.6C435.6,727,418.6,738.9,400,738.9z
	 M484.7,688c-25.4,0-45.7-18.6-49.1-42.4l10.2-5.1l22-20.3c5.1-6.8,10.2-15.3,13.6-23.7c11.9,18.6,30.5,33.9,54.2,39h1.7v1.7
	C535.6,666,513.5,688,484.7,688L484.7,688z M552.5,603.3c-28.8,0-50.8-22-50.8-50.8c0-6.8,1.7-16.9,5.1-27.1
	c15.2-8.5,27.1-20.3,35.6-33.9c13.6,15.3,33.9,23.7,54.2,27.1c5.1,11.9,6.8,25.4,6.8,33.9C603.3,581.3,581.3,603.3,552.5,603.3
	L552.5,603.3z M603.3,484.7c-28.8,0-50.8-22-50.8-50.8c0-13.6,5.1-30.5,11.9-47.4c1.7-1.7,3.4-1.7,5.1-3.4
	c13.6,10.2,32.2,16.9,50.8,16.9c8.5,0,16.9-1.7,25.4-5.1c5.1,13.6,8.5,27.1,8.5,39C654.2,462.7,632.1,484.7,603.3,484.7L603.3,484.7
	z"/>
</svg>
