<?xml version="1.0" encoding="utf-8"?>
<!-- Generator: Adobe Illustrator 24.0.0, SVG Export Plug-In . SVG Version: 6.00 Build 0)  -->
<svg version="1.1" id="Layer_1" xmlns="http://www.w3.org/2000/svg" xmlns:xlink="http://www.w3.org/1999/xlink" x="0px" y="0px"
	 viewBox="0 0 800 800" style="enable-background:new 0 0 800 800;" xml:space="preserve">
<style type="text/css">
	.st0{fill:#689F38;}
	.st1{fill:#8BC34A;}
	.st2{fill:#FF1744;}
	.st3{fill:#D50000;}
	.st4{fill:#FFC107;}
</style>
<path class="st0" d="M648.2,251.3C594.3,305.3,500,291.8,500,291.8s-13.4-94.4,40.4-148.2c53.9-53.9,148.2-40.4,148.2-40.4
	S702.1,197.4,648.2,251.3L648.2,251.3z"/>
<path class="st1" d="M508.6,316.7c122,13.5,257.5,149,257.5,149s13.5-94.9-81.3-162.6C589.9,235.4,508.6,316.7,508.6,316.7
	L508.6,316.7z M477.1,283.1c-13.5-122-149-257.5-149-257.5s94.9-13.5,162.6,81.3C558.4,201.8,477.1,283.1,477.1,283.1L477.1,283.1z"
	/>
<path class="st2" d="M598.2,626.7C495.3,729.6,201.9,837.6,87.6,723.3C-26.8,609,81.3,315.6,184.2,212.7
	c102.9-102.9,230.7-45.3,345,69C643.5,396,701.1,523.8,598.2,626.7L598.2,626.7z"/>
<path class="st3" d="M234.7,240.2c18.7-18.7,49-18.7,67.7,0c18.7,18.7,18.7,49,0,67.7c-18.7,18.7-53.5,23.2-72.2,4.5
	S215.9,259,234.7,240.2z M392.4,351.6c18.7-18.7,49-18.7,67.7,0s18.7,49,0,67.7c-18.7,18.7-53.5,23.2-72.2,4.4
	C369.2,405.1,373.6,370.3,392.4,351.6L392.4,351.6z M142.9,600.2c18.7-18.7,49-18.7,67.7,0s18.7,49,0,67.7
	c-18.7,18.7-53.5,23.2-72.2,4.4C119.8,653.7,124.2,618.9,142.9,600.2z M504.2,507.3c18.7-18.7,49-18.7,67.7,0s18.7,49,0,67.7
	c-18.7,18.7-53.5,23.2-72.2,4.4C481,560.8,485.4,526,504.2,507.3L504.2,507.3z M181.3,408.6c18.7-18.7,49-18.7,67.7,0
	s18.7,49,0,67.7c-18.7,18.7-53.5,23.2-72.2,4.4C158.1,462,162.6,427.3,181.3,408.6z M312.5,564.8c18.7-18.7,49-18.7,67.7,0
	s18.7,49,0,67.7c-18.7,18.7-53.5,23.2-72.2,4.4C289.3,618.3,293.8,583.5,312.5,564.8z"/>
<path class="st4" d="M282.1,287.7c-7.5,7.5-44.4,32.3-51.9,24.8c-7.5-7.5,17.3-44.4,24.8-51.9c7.5-7.5,19.6-7.5,27.1,0
	C289.6,268,289.6,280.2,282.1,287.7L282.1,287.7z M439.8,399.1c-7.5,7.5-44.4,32.3-51.9,24.8c-7.5-7.5,17.3-44.4,24.8-51.9
	c7.5-7.5,19.6-7.5,27.1,0C447.3,379.4,447.3,391.6,439.8,399.1z M190.4,647.6c-7.5,7.5-44.4,32.3-51.9,24.8
	c-7.5-7.5,17.3-44.4,24.8-51.9c7.5-7.5,19.6-7.5,27.1,0C197.8,628,197.8,640.2,190.4,647.6z M551.6,554.7
	c-7.5,7.5-44.4,32.3-51.9,24.8c-7.5-7.5,17.3-44.4,24.8-51.9c7.5-7.5,19.6-7.5,27.1,0C559.1,535.1,559.1,547.2,551.6,554.7z
	 M228.7,456c-7.5,7.5-44.4,32.3-51.9,24.8c-7.5-7.5,17.3-44.4,24.8-51.9c7.5-7.5,19.6-7.5,27.1,0C236.2,436.3,236.2,448.5,228.7,456
	L228.7,456z M360,612.2c-7.5,7.5-44.4,32.3-51.9,24.8c-7.5-7.5,17.3-44.4,24.8-51.9c7.5-7.5,19.6-7.5,27.1,0
	C367.4,592.6,367.4,604.7,360,612.2L360,612.2L360,612.2z"/>
</svg>
