<?xml version="1.0" encoding="utf-8"?>
<!-- Generator: Adobe Illustrator 24.0.0, SVG Export Plug-In . SVG Version: 6.00 Build 0)  -->
<svg version="1.1" id="Layer_1" xmlns="http://www.w3.org/2000/svg" xmlns:xlink="http://www.w3.org/1999/xlink" x="0px" y="0px"
	 viewBox="0 0 800 800" style="enable-background:new 0 0 800 800;" xml:space="preserve">
<style type="text/css">
	.st0{fill:#0097A7;}
	.st1{fill:#4DD0E1;}
</style>
<path class="st0" d="M211.9,362.4C174.3,362.4,99,230.7,99,230.7H5v18.8h9.4c56.4,18.8,47,75.2,65.8,188.1s112.9,131.7,112.9,131.7
	S249.5,362.4,211.9,362.4L211.9,362.4z M569.3,249.5c0-46.6-57-94.1-150.5-94.1S268.3,203,268.3,249.5s57,74.4,150.5,74.4
	S569.3,296.1,569.3,249.5z"/>
<path class="st0" d="M624.6,236.7l-82.3,25.6l16.8,53.9l82.3-25.6c39.8-12.3,82,10,94.3,49.8c0.1,0.3,7.2,32.2-1.4,85.4l-2.4,15
	c-9.5,60.5-15.5,82.6-46.2,92.1l-53.9,16.8l16.8,53.9l53.9-16.8c66.9-20.8,76.2-80,85.2-137.3l2.3-14.7c10.9-67.2,0.8-108-0.4-111.6
	C767.9,253.9,694,215.1,624.6,236.7L624.6,236.7z"/>
<path class="st0" d="M381.2,117.9c0,20.8,16.8,37.6,37.6,37.6c20.8,0,37.6-16.8,37.6-37.6s-16.8-37.6-37.6-37.6
	C398,80.3,381.2,97.1,381.2,117.9z"/>
<path class="st1" d="M588.1,663.3H268.3c37.6,0,37.6,56.4,37.6,56.4h244.5C550.5,719.8,550.5,663.3,588.1,663.3z"/>
<path class="st1" d="M249.5,211.9c0,0-75.2,188.1-75.2,319.8S266.9,701,381.2,701h94c114.3,0,206.9-37.6,206.9-169.3
	s-94-319.8-94-319.8H249.5z"/>
</svg>
