<?xml version="1.0" encoding="utf-8"?>
<!-- Generator: Adobe Illustrator 24.0.0, SVG Export Plug-In . SVG Version: 6.00 Build 0)  -->
<svg version="1.1" id="Layer_1" xmlns="http://www.w3.org/2000/svg" xmlns:xlink="http://www.w3.org/1999/xlink" x="0px" y="0px"
	 viewBox="0 0 800 800" style="enable-background:new 0 0 800 800;" xml:space="preserve">
<style type="text/css">
	.st0{fill:#FF3D00;}
	.st1{fill:#DD2C00;}
	.st2{fill:#4CAF50;}
</style>
<path class="st0" d="M398.8,182.1c0,0-324.1-65.3-365.5,201.4C-7.9,650.3,237,733.7,307.8,749.7c70.7,16,388.6,59.9,455.3-229.1
	c55.3-239.5-158-383.8-340.7-333.1L398.8,182.1L398.8,182.1z"/>
<path class="st1" d="M422.4,187.5l-23.6-5.3c0,0-236.4-47.5-331.1,104.8c31.2,19.1,82.4,41.4,82.4,41.4c35.3,15.2,69.2,23,100.8,23
	c31.2,0,59.8-7.4,84.7-21.5c8.2,39.6,30.8,81.2,83.5,113.4l38.2,23.4l18-41.1c15.1-34.4,22.6-63.1,24.4-88.9
	c20.2,10.2,42.8,16.7,67.4,16.7c29.5,0,59.4-9.3,88.7-27.7c0,0,38.5-22.2,63.2-41C651.9,196.6,531.7,157.1,422.4,187.5L422.4,187.5z
	"/>
<path class="st2" d="M439.5,409.8c37.5-85.6,21.7-124.4-14.8-195.6c50,65.1,116.7,137,210.5,78.3c-71.3-19-58.4-73.8-147-89.3
	c66.4,2.8,101.6,23.6,147-67.2c-71.5,37.6-113.3-44.8-206.2,40.1c-15.7,9.7-32.2-15-44.7-1.6C317,63,237.3,162.6,204.7,77.2
	c0,131.3,126,95.6,156.5,117.4c-118.6-10-109.5,80.3-195.6,97.8c113.3,48.9,186.8,1.2,216.6-80C377.5,244.2,337.5,347.5,439.5,409.8
	L439.5,409.8z"/>
<path class="st2" d="M380.8,195.8c-0.5,3.9,7.7,18.4,34.2,18.4c31.7,0,19.6-15.8,19.6-15.8s-2.9-91.4,63.6-151.7
	c-16.9-14-34.6-6.5-34.6-6.5S392.5,113.4,380.8,195.8z"/>
</svg>
