<?xml version="1.0" encoding="utf-8"?>
<!-- Generator: Adobe Illustrator 24.0.0, SVG Export Plug-In . SVG Version: 6.00 Build 0)  -->
<svg version="1.1" id="Layer_1" xmlns="http://www.w3.org/2000/svg" xmlns:xlink="http://www.w3.org/1999/xlink" x="0px" y="0px"
	 viewBox="0 0 800 800" style="enable-background:new 0 0 800 800;" xml:space="preserve">
<style type="text/css">
	.st0{fill:#E1E8ED;stroke:#292F33;stroke-width:40;stroke-miterlimit:10;}
</style>
<path class="st0" d="M605.2,389c-108.4,0-193.4,0-193.4,0S496.8,389,605.2,389s193.4,0,193.4,0S713.6,389,605.2,389z M605.2,389
	c-88.3,0-160.1,0-160.1,0S516.9,389,605.2,389s160.1,0,160.1,0S693.5,389,605.2,389L605.2,389z"/>
<path class="st0" d="M195.2,389c-108.4,0-193.4,0-193.4,0S86.7,389,195.2,389s193.4,0,193.4,0S303.6,389,195.2,389z M195.2,389
	c-88.3,0-160.1,0-160.1,0S106.9,389,195.2,389c88.3,0,160.1,0,160.1,0S283.4,389,195.2,389L195.2,389z"/>
</svg>
