<?xml version="1.0" encoding="utf-8"?>
<!-- Generator: Adobe Illustrator 24.0.0, SVG Export Plug-In . SVG Version: 6.00 Build 0)  -->
<svg version="1.1" id="Layer_1" xmlns="http://www.w3.org/2000/svg" xmlns:xlink="http://www.w3.org/1999/xlink" x="0px" y="0px"
	 viewBox="0 0 100 100" style="enable-background:new 0 0 100 100;" xml:space="preserve">
<style type="text/css">
	.st0{fill:#FF1744;}
	.st1{fill:#D50000;}
	.st2{fill:#FFCDD2;}
	.st3{fill:#795548;}
	.st4{fill:#4CAF50;}
</style>
<path d="M97.6,40.7c-0.2-1.3-0.8-2.6-1.9-3.5c1.4-4.4-1.5-9-6.1-7.6c-3.7-3.3-9.3-1.5-10.4,3.1c-4,0.5-7,4.4-6.1,8.2
	c-2.6,1.5-3.9,4.4-3.8,7.3c-0.3,0.1-0.7,0.2-1,0.3c-0.9-1.2-1.8-2.5-2.7-3.7l-2.2,1.5c0.8,1.1,1.5,2.2,2.3,3.2
	c-0.8,0.4-1.6,0.9-2.4,1.4c-0.9-1.2-1.8-2.4-2.6-3.7l-2.2,1.5c0.9,1.2,1.8,2.5,2.7,3.7c-0.8,0.6-1.5,1.3-2.3,2
	c-0.9-1.3-1.9-2.6-2.8-3.9l-2.2,1.5c1,1.5,2,2.9,3.1,4.3c-0.7,0.8-1.5,1.7-2.1,2.6c-1.2-1.6-2.3-3.2-3.5-4.8l-2.2,1.5
	c1.3,1.9,2.6,3.7,4,5.5c-0.5,0.8-1,1.6-1.5,2.4c-2-2.5-4.4-4.9-7-6.9L44,56.2l-0.8,0.5c-2,1.2-3.6,2.4-5,3.6
	c-5.8,3.4-6.9,18.2-3.3,25.3c10-7.4,12.7-18.1,7.3-25c0.5-0.4,1-0.7,1.6-1.1c2.5,2,4.7,4.4,6.6,6.8c-1.1,2.3-1.9,4.6-2.3,6.7
	c0.3,0.7,0.7,1.3,1,1.9c0.6-0.8,1.3-1.7,2-2.6l2,1.8c-1,1.1-1.8,2.2-2.4,3.2c0.9,1.2,1.9,2.2,3,3.1c0.8-0.8,1.7-1.7,2.6-2.8l2.1,1.7
	c-0.9,1-1.7,2-2.4,2.7c0.5,0.3,1,0.6,1.6,0.9c1.3-0.5,2.7-1.3,4.1-2.3c2.2,0.3,4.4,0.8,6.6,1.5c0,0.6,0,1.2,0,1.8
	c-6.3-2.5-16.7,7.3-18.6,15.2c11.5,2.5,19.5-2,20.9-11c0.4-2,0.5-4.3,0.4-7l0-0.9l-0.9-0.3c-1.8-0.6-3.7-1.1-5.5-1.4
	c1.1-1,2.2-2,3.2-3.2c1.5,0.9,3.1,1.7,4.8,2.4l1-2.5c-1.4-0.6-2.8-1.3-4.1-2.1c0.3-0.4,0.6-0.8,0.9-1.2c0.3-0.5,0.7-1,1-1.4
	c1.4,0.8,2.9,1.6,4.4,2.2l1-2.5c-1.4-0.6-2.8-1.3-4.1-2c0.6-1,1.1-1.9,1.5-2.9c1.2,0.7,2.5,1.4,3.9,2l1-2.5c-1.4-0.6-2.6-1.2-3.9-2
	c0.4-1,0.7-2,1-3c1,0.6,2,1.1,3,1.5l1.1-2.5c-1.3-0.5-2.4-1.2-3.5-1.9c0.2-1.4,0.2-2.7,0-3.9c0,0,0-0.1,0-0.1
	c2.2-2.6,2.4-6.8,0.6-9.9c3-1,5.1-4,4.9-7c2.2,0.3,4.5-0.5,5.9-2.2c0.6,2,2.1,3.8,4,4.5c-1.8,2.1-2.3,5.3-1,7.7
	c-2.3,1.5-3.4,4.8-2.6,7.5c-10.7,6.9-8.9,21.8,3.8,25.2c-4.1-4.7-2-9.4,1.7-13.3c2.9-3,4.5-7.1-0.4-11c1.9-1.8,2.6-4.9,1.6-7.4
	C97.2,45.4,98,42.9,97.6,40.7L97.6,40.7z"/>
<path class="st0" d="M52.3,36.4c-6-18-19.6-4.8-19.6-4.8s-1.9,0.1-4.1,0.9C24,28,15.3,30.7,15.3,30.7S-0.9,25.4,1,43.4
	C1.9,51.1,7.9,56,16.1,56c4.2,0,7.8-1.3,10.5-3.5c4.4,3.9,10.7,4.6,17.1,1.7C51.6,50.8,54.8,43.8,52.3,36.4L52.3,36.4z"/>
<path class="st1" d="M35.3,44.8c-0.6-5.7,3.9-16,7.7-17.9c-5.2-0.1-10.3,4.6-10.3,4.6s-1.7,0.1-3.9,0.9c-0.1-0.1-0.3-0.1-0.4-0.1
	c2,1.9,3.3,5.4,2.8,11c-0.4,3.8-2,6.8-4.5,9c2.2,2,7.4,5.8,17.1,1.9C39.2,53.4,35.9,50.5,35.3,44.8L35.3,44.8z"/>
<path class="st2" d="M6.8,44.2c-0.6,0-1.3-0.4-1.5-1.2c-1.5-6,2-8.4,3.5-9.3c0.7-0.4,1.6-0.1,1.9,0.6c0.4,0.7,0.1,1.6-0.6,1.9
	c-1.5,0.7-2.9,2.3-2,6c0.1,0.7-0.3,1.6-1,1.7C7,44.2,7,44.2,6.8,44.2z"/>
<path class="st3" d="M34,28.8c-0.1-0.4-0.3-0.7-0.4-1.2c0-0.1-0.1-0.3-0.1-0.4c-0.1-0.3-0.1-0.6-0.3-0.7c-0.1-0.3-0.1-0.4-0.3-0.7
	s-0.1-0.4-0.1-0.7c-0.1-0.3-0.1-0.6-0.3-0.7c-0.1-0.3-0.1-0.6-0.3-0.9c0-0.1-0.1-0.3-0.1-0.4c-0.1-0.3-0.1-0.6-0.1-0.9
	c0-0.1,0-0.3-0.1-0.4c0-0.3-0.1-0.6-0.1-0.9c0-0.1,0-0.3-0.1-0.4c0-0.3-0.1-0.6-0.1-0.9v-0.3v-0.9V18v-0.9v-0.3v-0.9v-0.3v-0.7v-0.4
	v-0.6v-0.4V13c0-0.1,0-0.3,0.1-0.6v-0.3c0-0.1,0.1-0.4,0.1-0.6v-0.3c0-0.3,0.1-0.4,0.1-0.7v-0.1c0-0.3,0.1-0.4,0.1-0.7
	c0.9-3.1,2.3-5.1,2.9-5.8c0.1,0,0.3-0.1,0.3-0.1c0.7-0.3,1-1.2,0.7-1.9c-0.3-0.7-0.7-1.3-1.5-1c0,0-0.1,0-0.1,0.1
	c-0.1,0-0.3,0-0.4,0.1c-0.1,0-0.1,0.1-0.3,0.3C13.2,10.5,14,32.6,14,32.8c0,0.7,0.7,1.5,1.5,1.5c0.9,0,1.5-0.7,1.5-1.5
	c0-0.1-0.6-17,13.4-26.4C28,11.7,26.3,21,33,33.5c0.3,0.4,0.7,0.7,1.3,0.7c0.3,0,0.4,0,0.7-0.1c0.6-0.3,0.9-0.9,0.7-1.5
	c0-0.1-0.1-0.4-0.1-0.6c-0.3-0.6-0.6-1.2-0.9-1.6v-0.1C34.4,29.9,34.1,29.3,34,28.8L34,28.8z"/>
<path class="st4" d="M47.4,19.7c-2.6-2.8,4.2-18.9-13.1-18.9C24.4,20,47.4,19.7,47.4,19.7z"/>
</svg>
