<?xml version="1.0" encoding="utf-8"?>
<!-- Generator: Adobe Illustrator 24.0.0, SVG Export Plug-In . SVG Version: 6.00 Build 0)  -->
<svg version="1.1" id="sound-max" xmlns="http://www.w3.org/2000/svg" xmlns:xlink="http://www.w3.org/1999/xlink" x="0px" y="0px"
	 viewBox="0 0 800 800" style="enable-background:new 0 0 800 800;" xml:space="preserve">
<style type="text/css">
	.st0{fill:#F40090;}
	.st1{fill:none;stroke:#000000;stroke-width:66.6667;stroke-linecap:round;stroke-linejoin:round;stroke-miterlimit:133.3333;}
	.st2{fill:none;stroke:#B7B7B7;stroke-width:66.6667;stroke-linecap:round;stroke-linejoin:round;stroke-miterlimit:133.3333;}
</style>
<title  style="stroke-width: 2;">sound max</title>
<path id="secondary-fill" class="st0" d="M233.3,300v200h-100c-18.4,0-33.3-14.9-33.3-33.3V333.3c0-18.4,14.9-33.3,33.3-33.3H233.3z
	"/>
<path id="primary-stroke" class="st1" d="M366.7,166.7v466.7L233.3,500h-100c-18.4,0-33.3-14.9-33.3-33.3V333.3
	c0-18.4,14.9-33.3,33.3-33.3h100L366.7,166.7z"/>
<path id="tertiary-stroke" class="st2" d="M612,188c117,117.1,117,306.9,0,424 M518,518c65.2-65,65.3-170.5,0.3-235.7
	c-0.1-0.1-0.2-0.2-0.3-0.3"/>
</svg>
