<?xml version="1.0" encoding="utf-8"?>
<!-- Generator: Adobe Illustrator 24.0.0, SVG Export Plug-In . SVG Version: 6.00 Build 0)  -->
<svg version="1.1" id="Layer_1" xmlns="http://www.w3.org/2000/svg" xmlns:xlink="http://www.w3.org/1999/xlink" x="0px" y="0px"
	 viewBox="0 0 800 800" style="enable-background:new 0 0 800 800;" xml:space="preserve">
<style type="text/css">
	.st0{fill:#5C913B;}
	.st1{fill:#77B255;}
	.st2{fill:#5864B7;}
	.st3{fill:#334372;}
	.st4{fill:#AA8DD8;}
	.st5{fill:#253356;}
</style>
<path class="st0" d="M616.5,7c0,0-135.5,14.2-197.5,93.9C344.9,196.1,398.4,285,398.4,285S510,275.2,561,212
	C635.1,120.2,616.5,7,616.5,7z"/>
<path class="st1" d="M297.1,7c0,0-21.1,106.8,23.3,172.8c53,78.9,131.3,58.7,131.3,58.7s18.8-87.5-16-141.2
	C385.1,19.3,297.1,7,297.1,7z"/>
<ellipse class="st2" cx="254.6" cy="250.7" rx="159.9" ry="139.4"/>
<path class="st3" d="M356.3,376.9c0-19.7,2.9-37.9,7.9-54.9c-29.7-9.9-60.8-14.9-92.1-14.8c-52.3,0-100.7,12.7-140.5,36.1
	c28.6,37.1,77.6,56.8,133.3,56.8c34.1,0,65.5-7.7,91.5-21.9C356.4,377.8,356.3,377.4,356.3,376.9z"/>
<path class="st3" d="M300.3,366.8c0,6.2,0.4,12.3,0.9,18.2c65.6-14.6,113.3-61.1,113.3-134.4c0-18-3-34.3-8.3-49
	C343.1,230.5,300.3,288.1,300.3,366.8L300.3,366.8z"/>
<ellipse class="st2" cx="551.7" cy="366.8" rx="205.6" ry="185.8"/>
<path class="st3" d="M551.7,541c0-122.1-86.7-201.5-200.9-217.5c-3.1,13.6-4.8,28.1-4.8,43.3c0,115.3,91.8,185.6,205.1,185.8
	C551.3,548.8,551.7,545,551.7,541z"/>
<ellipse transform="matrix(0.866 -0.5 0.5 0.866 -187.3584 263.8904)" class="st4" cx="398.7" cy="481.6" rx="57.8" ry="58.4"/>
<ellipse class="st2" cx="284.6" cy="564.3" rx="244.2" ry="220.7"/>
<path class="st3" d="M409.5,440.5c-16.2-28.4-39.3-13.6-66.6-31.6c-22-14.4-25-36.4-48.1-36.4s-37.1,19.2-50.1,24.1
	c-30.7,11.3-49-5.3-72.1,17.9s17.9,44,21.3,61.8c4.4,22.7-24.1,39.2-4.1,50.1c28.6,15.8,35.8-12.9,82-10.6
	c34.7,1.7,48.5,35.3,78.7,25c31-10.5-11-40.5,7.6-59.8C380.6,457.5,420.4,459.8,409.5,440.5L409.5,440.5z M660.9,255.8
	c-10.3-24-24.6-10.2-44.7-26.9c-16.1-13.4-16.5-31.1-34.8-33.2c-18.3-2.1-31.1,11.9-41.9,14.5c-25.3,6.2-43.5-1.9-58.8,7.6
	c-22.2,13.7,3.2,30.3,4.3,44.8c1.4,18.4-15.6,34.9-0.8,45.5c21.3,15.1,34.5-4,70.9,1.9c27.4,4.5,29.4,24,54.3,18.5
	c25.5-5.6,3.5-30.4,19.9-44C649.4,268,667.9,272,660.9,255.8L660.9,255.8z M239.5,138.3c-19.2-6.8-18.9,8.7-39.2,11.3
	c-16.3,2.1-26.6-7.1-37.6,2.3c-10.9,9.4-9.7,24.2-14,31.8c-9.9,17.8-24.2,24-26.9,37.7c-3.9,20,19.1,14.3,28,21.4
	c11.3,9,11.7,27.5,25.6,24.7c20-4.2,16-21.9,38.8-39.6c17.1-13.3,29.4-4.1,39.5-21.3c10.4-17.6-15.6-18.2-14.6-34.8
	C240.5,151.4,252.5,143,239.5,138.3L239.5,138.3z"/>
<ellipse class="st5" cx="279.4" cy="450.6" rx="86.9" ry="55.2"/>
<ellipse class="st5" cx="561.8" cy="260.1" rx="65.2" ry="41.4"/>
<ellipse transform="matrix(0.6446 -0.7645 0.7645 0.6446 -85.5581 212.8116)" class="st5" cx="186.1" cy="198.4" rx="47.1" ry="29.9"/>
</svg>
