<?xml version="1.0" encoding="utf-8"?>
<!-- Generator: Adobe Illustrator 24.0.0, SVG Export Plug-In . SVG Version: 6.00 Build 0)  -->
<svg version="1.1" id="Layer_1" xmlns="http://www.w3.org/2000/svg" xmlns:xlink="http://www.w3.org/1999/xlink" x="0px" y="0px"
	 viewBox="0 0 800 800" style="enable-background:new 0 0 800 800;" xml:space="preserve">
<style type="text/css">
	.st0{fill:#FFEB3B;}
	.st1{fill:#FFFDE7;}
	.st2{fill:#FFC107;}
	.st3{fill:#FFB300;}
	.st4{fill:#90CAF9;}
	.st5{fill:#FB8C00;}
	.st6{fill:#F50057;}
</style>
<path class="st0" d="M481.2,177.2c0,84.6,68.6,153.2,153.2,153.2s153.2-68.6,153.2-153.2S719,24,634.4,24S481.2,92.6,481.2,177.2z"
	/>
<path class="st1" d="M615.2,43.2h38.3v268.1h-38.3V43.2z"/>
<path class="st1" d="M500.3,158.1h268.1v38.3H500.3V158.1z"/>
<path class="st1" d="M526.1,95.9l27.1-27.1l189.6,189.6l-27.1,27.1L526.1,95.9z"/>
<path class="st1" d="M553.1,285.5l-27.1-27.1L715.6,68.9l27.1,27.1L553.1,285.5z"/>
<path class="st2" d="M634.4,52.7c68.7,0,124.5,55.8,124.5,124.5c0,68.6-55.8,124.5-124.5,124.5c-68.7-0.1-124.4-55.8-124.5-124.5
	C509.9,108.5,565.7,52.7,634.4,52.7 M634.4,24c-84.6,0-153.2,68.6-153.2,153.2s68.6,153.2,153.2,153.2s153.2-68.6,153.2-153.2
	S719,24,634.4,24z"/>
<path class="st3" d="M555,273h28l70.5-95.7H509.9C509.9,215.7,527.4,250.1,555,273z"/>
<path class="st4" d="M366.3,493.8h38.3v257.9h-38.3V493.8z"/>
<path class="st4" d="M538.6,770.9c0,0-134-19.2-134-76.6c0-57.5-38.3-57.5-38.3,0c0,57.4-134.1,76.6-134.1,76.6
	c-10.6,0-19.2,8.6-19.2,19.1h344.7C557.8,779.4,549.2,770.9,538.6,770.9z M117.3,177.2l70.5,95.7h327
	c-21.8-27.1-33.7-60.9-33.7-95.7H117.3z"/>
<path class="st5" d="M509.9,177.2h-28.7c0,34.8,11.9,68.6,33.7,95.7H555C526.4,249.3,509.9,214.2,509.9,177.2z"/>
<path class="st6" d="M173.8,253.8l184.2,250c0,0,25.3,39.7,55.4-0.7c30.1-40.4,183.7-249.3,183.7-249.3H173.8z"/>
</svg>
