<?xml version="1.0" encoding="utf-8"?>
<!-- Generator: Adobe Illustrator 24.0.0, SVG Export Plug-In . SVG Version: 6.00 Build 0)  -->
<svg version="1.1" id="Layer_1" xmlns="http://www.w3.org/2000/svg" xmlns:xlink="http://www.w3.org/1999/xlink" x="0px" y="0px"
	 viewBox="0 0 800 800" style="enable-background:new 0 0 800 800;" xml:space="preserve">
<style type="text/css">
	.st0{fill:#744EAA;}
	.st1{fill:#77B255;}
</style>
<path class="st0" d="M658.2,88.9c-63.6,0-106,44.4-169.6,133.3S319.9,382,234.2,400c-106,22.2-190.8,111.1-190.8,244.4
	c0,108.8,81.5,155.6,190.8,155.6c106,0,190.8-66.7,296.8-177.8s212-311.1,212-400S721.8,88.9,658.2,88.9z"/>
<path class="st1" d="M710.9,0c-26.5,0-26.5,27.7-26.5,55.4c0,39.2-26.5,25.1-52.9,25.1c-26.4,0-79.3,52.8-79.3,52.8h79.3
	c26.5,0,0,58.1,26.5,58.1s26.5-26.4,52.9-26.4c26.4,0,32.1,79.4,32.1,79.4s34-92.3-5.7-133.9C710.9,82.8,763.8,0,710.9,0z"/>
</svg>
