<?xml version="1.0" encoding="utf-8"?>
<!-- Generator: Adobe Illustrator 24.0.0, SVG Export Plug-In . SVG Version: 6.00 Build 0)  -->
<svg version="1.1" id="Layer_1" xmlns="http://www.w3.org/2000/svg" xmlns:xlink="http://www.w3.org/1999/xlink" x="0px" y="0px"
	 viewBox="0 0 800 800" style="enable-background:new 0 0 800 800;" xml:space="preserve">
<style type="text/css">
	.st0{fill:#77B255;}
	.st1{fill:#553788;}
	.st2{fill:#9266CC;}
	.st3{fill:#AA8DD8;}
	.st4{fill:#744EAA;}
</style>
<path class="st0" d="M581.6,271.9c3.3,0,6.5-0.8,9.5-2.3C684.7,222.8,751,108.9,772.7,43.6c3.7-11.1-2.3-23.3-13.5-27
	c-11.1-3.7-23.3,2.3-27,13.5c-18.7,56.2-78.8,160.5-160.1,201.2c-10.6,5.3-14.9,18.1-9.6,28.6C566.1,267.3,573.6,271.9,581.6,271.9z
	"/>
<circle class="st1" cx="389.4" cy="634.9" r="149.5"/>
<circle class="st2" cx="581.6" cy="335.9" r="149.5"/>
<circle class="st3" cx="389.4" cy="271.9" r="149.5"/>
<circle class="st4" cx="218.6" cy="400" r="149.5"/>
<circle class="st4" cx="603" cy="570.9" r="149.5"/>
<circle class="st2" cx="410.8" cy="464.1" r="149.5"/>
<circle class="st2" cx="175.9" cy="634.9" r="149.5"/>
</svg>
