<?xml version="1.0" encoding="utf-8"?>
<!-- Generator: Adobe Illustrator 24.0.0, SVG Export Plug-In . SVG Version: 6.00 Build 0)  -->
<svg version="1.1" id="Layer_1" xmlns="http://www.w3.org/2000/svg" xmlns:xlink="http://www.w3.org/1999/xlink" x="0px" y="0px"
	 viewBox="0 0 800 800" style="enable-background:new 0 0 800 800;" xml:space="preserve">
<style type="text/css">
	.st0{fill:#FF4081;}
	.st1{fill:#F8BBD0;}
	.st2{fill:#4CAF50;}
	.st3{fill:#388E3C;}
</style>
<path class="st0" d="M411.6,485.1c0,0-17.4-25.2-34.8-42.6c-17.4-17.4-40.6-32.9-42.6-34.8c-100.6-75.5-187.7-48.4-232.2,0
	c-34.8,38.7-50.3,77.4-50.3,116.1c0,29,11.6,58,15.5,85.1c11.6,54.2,15.5,89-5.8,120l-23.2,23.2c-7.7,7.7-7.7,19.3,0,27.1
	c3.9,5.8,7.7,7.7,13.5,7.7s9.7-1.9,13.5-5.8l31-31c25.2-21.3,65.8-11.6,112.2-1.9c31,5.8,63.9,19.3,98.7,19.3
	c36.8,0,75.5-17.4,108.4-48.4C465.8,672.8,479.3,572.2,411.6,485.1L411.6,485.1z"/>
<path class="st1" d="M417.4,572.2c11.6-11.6,19.3-27.1,21.3-44.5c-5.8-13.5-15.5-27.1-25.2-42.6c0,0-17.4-25.2-34.8-42.6
	c-17.4-17.4-40.6-32.9-42.6-34.8c-15.5-11.6-29-19.4-42.6-27.1c-17.4,1.9-32.9,7.7-44.5,19.4c-34.8,34.8-25.2,102.6,21.3,149
	C316.8,595.4,382.6,607,417.4,572.2L417.4,572.2z"/>
<path class="st2" d="M516.1,322.6c0,0,90.9-77.4,158.7-77.4c44.5,0,92.9,29,92.9,81.3c0,42.6-11.6,92.9-63.9,92.9
	c-50.3,0-50.3-38.7-54.2-54.2c-11.6,13.5-65.8,31-81.3-13.5c0,0-83.2,25.2-143.2,69.7L516.1,322.6z M473.5,342
	c60-69.7,9.7-232.2-81.3-232.2c-69.7,0-89,34.8-89,65.8c0,27.1,27.1,60,65.8,54.2c-7.7,48.4,36.8,69.7,69.7,44.5
	c19.3,5.8-3.9,110.3-56.1,158.7L473.5,342L473.5,342z"/>
<path class="st3" d="M576.1,13c-42.6,0-79.3,23.2-79.3,58c0,46.4,52.2,40.6,52.2,40.6s-44.5,54.2,32.9,69.7
	C578,200.7,549,237.5,508.4,282l-180,180c-7.7,7.7-7.7,19.3,0,27.1c3.9,3.9,9.7,5.8,13.5,5.8s9.7-1.9,13.5-5.8l48.4-48.4
	c42.6-38.7,94.8-92.9,156.7-156.7c0,0,56.1-58,69.7-73.5C725.1,115.6,709.6,13,576.1,13z"/>
</svg>
