<?xml version="1.0" encoding="utf-8"?>
<!-- Generator: Adobe Illustrator 24.0.0, SVG Export Plug-In . SVG Version: 6.00 Build 0)  -->
<svg version="1.1" id="Layer_1" xmlns="http://www.w3.org/2000/svg" xmlns:xlink="http://www.w3.org/1999/xlink" x="0px" y="0px"
	 viewBox="0 0 800 800" style="enable-background:new 0 0 800 800;" xml:space="preserve">
<style type="text/css">
	.st0{fill:#FFE082;}
	.st1{fill:#FFCA28;}
	.st2{fill:#C0CA33;}
	.st3{fill:#5D4037;}
	.st4{fill:#827717;}
</style>
<path class="st0" d="M615.6,145.2c19.6,0,137.2-19.6,137.2,156.8S498,792,145.2,792c-39.2,0-78.4-19.6-78.4-19.6l-19.6-58.8
	c0,0,19.6-78.4,137.2-137.2c117.6-58.8,201.2-108.1,251.1-158c39.2-39.2,101.7-116.4,101.7-175.2c0-38.4,39.2-78.4,39.2-78.4"/>
<path class="st1" d="M86.4,733.2c0,0,137.2-39.2,254.8-98s372.4-235.2,294-490c0,0,117.6-19.6,117.6,156.8S498,792,145.2,792
	c-39.2,0-78.4-19.6-78.4-19.6L86.4,733.2z"/>
<path class="st2" d="M734.4,202.8C697.7,124,615.6,164.8,615.6,8c-58.8,0-98,39.2-98,39.2s58.8,58.8,58.8,117.6
	c39.2,0,70.8-3.1,74.3,93.1C677.2,145.6,734.4,202.8,734.4,202.8L734.4,202.8z"/>
<path class="st2" d="M537.2,243.2c0,0-1.2-35.5,39.2-78.4s79-8,79-8l-4.7,101.1c0,0-17.2-63.7-44.1-65.3
	C549.8,189.1,537.2,243.2,537.2,243.2z"/>
<path class="st3" d="M47.2,733.2l19.6,39.2h19.6v-39.2l-39.2-19.6L47.2,733.2z"/>
<path class="st4" d="M615.6,8c-58.8,0-98,39.2-98,39.2h58.8C576.4,47.2,615.6,8,615.6,8z"/>
</svg>
