<?xml version="1.0" encoding="utf-8"?>
<!-- Generator: Adobe Illustrator 24.0.0, SVG Export Plug-In . SVG Version: 6.00 Build 0)  -->
<svg version="1.1" id="Layer_1" xmlns="http://www.w3.org/2000/svg" xmlns:xlink="http://www.w3.org/1999/xlink" x="0px" y="0px"
	 viewBox="0 0 800 800" style="enable-background:new 0 0 800 800;" xml:space="preserve">
<style type="text/css">
	.st0{fill:#8BC34A;}
	.st1{fill:#689F38;}
	.st2{fill:#558B2F;}
	.st3{fill:#7CB342;}
	.st4{fill:#33691E;}
	.st5{fill:#DCEDC8;}
</style>
<path class="st0" d="M639.3,279.7c47.4-47.4,75.2-38,27.8-85.4l-62.5-62.4c-47.4-47.4-58-19.5-105.4,27.8L55.5,549.9
	c-47.4,47.4-47.4,124.2,0,171.7l22.1,22.9c47.4,47.4,124.2,47.4,171.7,0L639.3,279.7L639.3,279.7z"/>
<path class="st1" d="M505.6,336.9C439.8,403,374.1,469.2,308.5,535.5c-97.6,98.7-133.3,164.2-149.7,190.9
	c-30.2,3.1-57.9,4.1-79.5-6.8c-8.7-26-2.3-55.8,4.5-86.1c39.1-24.4,99-64.5,177.4-143.4c65.5-66,134.4-135.4,188.8-190.2
	c-11-1.8-21.7-9.6-24.6-21.3c-0.6-3.1-1-6.3-0.9-9.5L99.6,582.4c-27.3,27.3-115,80.7-32,150.8c75.4,90.2,127.8-13.4,155.2-40.7
	l306.7-331.1c-8.2-7.1-15.6-18.4-15.1-29.4C512.4,334.4,509.2,336,505.6,336.9L505.6,336.9z"/>
<path class="st2" d="M724.5,115.8c66,9.1,33,57.4,21,60.4c53.9,30.3,33,72.6,15,63.5c9,12.1,18,18.1,18,54.4c0,9.1-12,24.2-45,9.1
	c12,12.1,27,45.3,15,66.6c-6,9.1-21,9.1-27,3c3,18.1,3,72.5-24,81.7c-36,18.1-42-12.1-54-30.3c-6,51.4-54,24.2-51-3
	c-51,33.3-66-9.1-48-30.2c-39,36.3-69,12.1-57-18.1c-15,18.1-90,15.1-57-48.4c-9,9.1-75,9.1-42-36.3c-33,12-84-21.2-30-54.4
	c-36,0-66.1-27.2-33-48.3c-54-18.2-9-42.4,15-54.5c-11.9-6-45-18.1,6-36.3c-17.9-18.1,15-27.2,63-21.1c-14.9-18.2,6-63.5,90.1-15.1
	c-15-39.3,15-48.4,57-27.2c-6-18.1,45-12.1,57,12.1c21.1-27.2,72-15.1,66.1,24.2C703.5,52.3,751.5,82.5,724.5,115.8L724.5,115.8z"/>
<path class="st3" d="M595.7,113.4C593.2,92.8,576,74.5,554,76.3c-11.4,0.9-23.9,24.3-10,30.2c-8.4-19.2-41-19.9-57.8-17.3
	c-11.4,1.7-20.9,8.8-18.7,21.8c2.6,14.8,16.3,16.1,28,18.8c-19.5-13.5-61.1-3.4-75.6,13.8c-5.1,6-13.6,19.3-8.1,27.2
	c5.2,7.5,21.7,9,29.4,6.4c-20.1,3.4-43.7,24.3-48.1,44.8c-1.9,8.7-0.9,19.4,8.7,22c8.9,2.5,28.5,0.4,32.1-10.2
	c-8,10.1-11.8,32.3-8.7,44.8c5.8,23.5,43.9,32.7,51.1,5.3c-6.2,10-9.6,32.5-4.1,43.3c7.6,14.9,48.8,15.9,44.5-4.4
	c-8.5,15.3,5.6,34.5,17.5,42.2c19,12.3,62.6,22.1,63.5-13.7c0.2,20.1,104.2-134.1,88.9-128.7c13.7-1.2,31.6-16.3,23.9-32.1
	c-8.4-17.3-42-21.2-54.8-9c9.7-7,36-29.9,19-42.7c-14.3-10.8-41.3-7.1-50.8,8.1c10.4-9.4,24.6-20.7,23.4-36.9
	c-0.7-9.1-11.3-16.2-19.5-18.5c-6.5-1.8-17-1.4-22.9,2.7c-4.3,3-6.7,10.6-9.3,13"/>
<path class="st4" d="M573.6,178.7c-15.1,8-21.7,21-8.4,34.1c-15.3-9.3-72.3-0.4-58.6,28.8c4.5,9.6,23.7,7,31,3.2
	c-14.6,5.7-44.8,23.8-44.2,43.8c0.9,27.3,44.1,35.4,52.6,11.2c-6.5,20.9-20,47.2-0.2,65.9c23.8,22.4,63.8,6.6,73.7-20.3
	c-10.4,22.5,13.2,40,34,28.9c24.9-13.4,24.8-40.4,5.7-59.5c15.9,5.3,38.2,5,48.5-11.5c19.9-32-16.8-39.3-41.4-39.4
	c13.2-4.9,41.7-31.4,31.6-49.5c-12.2-21.9-52.9-9.5-69.1,7.5c7.4-8.8,18.8-21.9,11.3-30.3c-17.1-19.3-29.9,7.6-29.9,26.6
	C610.4,218.1,607.1,169.6,573.6,178.7z"/>
<path class="st5" d="M81.4,598.8c-4.4-21.1-5.1-44.7-0.9-70.9l-25,22C12.6,592.8,8.9,659.5,43.6,707C13.6,661,52.6,623.9,81.4,598.8
	z M204.4,714.5c-25.3,32.1-62.3,75.8-110.4,43.4c47.3,33.1,112.9,28.8,155.2-13.4l30.5-36.4C255.5,716.2,229.7,718.4,204.4,714.5
	L204.4,714.5z"/>
<path class="st5" d="M66.4,733.8c-23.4-23.4-22.1-60.1,0-84.8c16.9-18.9,52.2-38.6,52.2-38.6s-15.1,55.3,0.4,70.9
	c16,16,69.5,1.3,68.9,0.4c-0.5-0.9-11.1,28.2-36.7,52.2C123.6,759.7,89.9,757.2,66.4,733.8L66.4,733.8z"/>
</svg>
