<?xml version="1.0" encoding="utf-8"?>
<!-- Generator: Adobe Illustrator 24.0.0, SVG Export Plug-In . SVG Version: 6.00 Build 0)  -->
<svg version="1.1" id="Layer_1" xmlns="http://www.w3.org/2000/svg" xmlns:xlink="http://www.w3.org/1999/xlink" x="0px" y="0px"
	 viewBox="0 0 800 800" style="enable-background:new 0 0 800 800;" xml:space="preserve">
<style type="text/css">
	.st0{fill:#D87B00;}
	.st1{fill:#FFB300;}
	.st2{fill:#683529;}
	.st3{fill:#4C2114;}
</style>
<path class="st0" d="M234.2,296.4c0,148.8,120.5,269.4,269.3,269.5S773,445.3,773,296.5c0-0.1,0-0.1,0-0.2
	C773,147.6,652.4,27,503.6,27S234.2,147.6,234.2,296.4L234.2,296.4z"/>
<path class="st1" d="M27,503.6C27,652.4,147.6,773,296.4,773s269.4-120.6,269.4-269.4S445.2,234.2,296.4,234.2S27,354.8,27,503.6z"
	/>
<path class="st2" d="M213.5,493.3c0,28.6,23.2,51.8,51.8,51.8c28.6,0,51.8-23.2,51.8-51.8c0,0,0,0,0,0c0-28.6-23.2-51.8-51.8-51.8
	C236.7,441.4,213.5,464.6,213.5,493.3C213.5,493.2,213.5,493.2,213.5,493.3z"/>
<path class="st2" d="M275.7,348.2c0,17.2,13.9,31.1,31.1,31.1s31.1-13.9,31.1-31.1s-13.9-31.1-31.1-31.1S275.7,331,275.7,348.2z"/>
<path class="st2" d="M337.8,607.2c0,22.9,18.5,41.5,41.4,41.5c22.9,0,41.5-18.5,41.5-41.4c0,0,0,0,0-0.1c0-22.9-18.6-41.4-41.4-41.4
	S337.8,584.3,337.8,607.2L337.8,607.2z"/>
<path class="st2" d="M109.9,534.7c0,17.2,13.9,31.1,31.1,31.1c17.2,0,31.1-13.9,31.1-31.1c0,0,0,0,0,0c0-17.2-13.9-31.1-31.1-31.1
	S109.9,517.5,109.9,534.7L109.9,534.7z"/>
<path class="st2" d="M400,472.5c0,17.2,13.9,31.1,31.1,31.1c17.2,0,31.1-13.9,31.1-31.1s-13.9-31.1-31.1-31.1
	C413.9,441.4,400,455.3,400,472.5z"/>
<path class="st2" d="M213.5,648.7c0,11.4,9.3,20.7,20.7,20.7s20.7-9.3,20.7-20.7c0,0,0,0,0,0c0-11.4-9.3-20.7-20.7-20.7
	S213.5,637.2,213.5,648.7C213.5,648.7,213.5,648.7,213.5,648.7z"/>
<path class="st3" d="M400,151.3c0,22.9,18.5,41.5,41.4,41.5c22.9,0,41.5-18.5,41.5-41.4c0,0,0,0,0-0.1c0-22.9-18.6-41.4-41.4-41.4
	S400,128.4,400,151.3L400,151.3z"/>
<path class="st3" d="M524.3,244.6c0,17.2,13.9,31.1,31.1,31.1c17.2,0,31.1-13.9,31.1-31.1s-13.9-31.1-31.1-31.1
	C538.2,213.5,524.3,227.4,524.3,244.6z"/>
<path class="st3" d="M545,120.3c0,17.2,13.9,31.1,31.1,31.1c17.2,0,31.1-13.9,31.1-31.1s-13.9-31.1-31.1-31.1
	C559,89.2,545,103.1,545,120.3z"/>
<path class="st3" d="M627.9,337.8c0,11.4,9.3,20.7,20.7,20.7s20.7-9.3,20.7-20.7c0-11.4-9.3-20.7-20.7-20.7S627.9,326.4,627.9,337.8
	z"/>
</svg>
