<?xml version="1.0" encoding="utf-8"?>
<!-- Generator: Adobe Illustrator 24.0.0, SVG Export Plug-In . SVG Version: 6.00 Build 0)  -->
<svg version="1.1" id="Layer_1" xmlns="http://www.w3.org/2000/svg" xmlns:xlink="http://www.w3.org/1999/xlink" x="0px" y="0px"
	 viewBox="0 0 800 800" style="enable-background:new 0 0 800 800;" xml:space="preserve">
<style type="text/css">
	.st0{fill:#4CAF50;}
	.st1{fill:#388E3C;}
	.st2{fill:#AED581;}
</style>
<path class="st0" d="M774.9,205c0-116.3-24.4-180-80.6-180c-54.4,0-61.9,60-99.4,131.2c-11.3,1.9-20.6,11.3-20.6,24.4
	c0,3.7,0,7.5,1.9,9.4c-13.1,22.5-26.2,43.1-39.4,63.7H533c-13.1,0-24.4,11.3-24.4,24.4c0,5.6,1.9,9.4,3.7,13.1
	c-24.4,33.8-50.6,65.6-75,93.8h-3.8c-13.1,0-24.4,11.2-24.4,24.4v5.6c-26.3,26.3-50.6,48.8-75,67.5c-11.3,0-22.5,7.5-24.4,18.8
	c-24.4,16.9-46.9,33.8-69.4,46.9c-1.9,0-3.8-1.9-5.6-1.9c-11.3,0-22.5,7.5-24.4,18.7c-22.5,13.1-43.1,24.4-61.9,33.8
	c-3.8-1.9-9.4-3.8-13.1-3.8c-13.1,0-24.4,11.3-24.4,24.4c-54.4,28.1-86.3,48.8-86.3,82.5c0,24.4,16.9,46.9,52.5,60
	C83,769.4,90.5,775,99.9,775c5.6,0,9.4-1.9,13.1-3.8c15,1.9,31.9,3.8,50.6,3.8c26.3,0,56.3-3.8,84.4-7.5c3.8,5.6,11.3,7.5,18.8,7.5
	c11.3,0,20.6-7.5,24.4-16.9c31.9-9.4,65.6-20.6,97.5-33.8c3.8,1.9,7.5,1.9,11.3,1.9c11.2,0,22.5-7.5,24.4-18.8
	c20.6-9.4,41.3-22.5,60-33.8c3.8,3.8,9.4,3.8,15,3.8c13.1,0,24.4-11.3,24.4-24.4v-5.6c16.9-11.3,31.9-24.4,48.8-37.5
	c3.8,1.9,7.5,1.9,11.3,1.9c13.1,0,24.4-11.3,24.4-24.4c0-3.8,0-5.6-1.9-9.4c15-15,30-31.9,45-48.8c13.1,0,24.4-11.3,24.4-24.4v-5.6
	c15-22.5,30-45,43.1-67.5c13.1,0,24.4-11.3,24.4-24.4c0-5.6-1.9-11.3-5.6-15c11.2-24.4,18.7-50.6,26.2-76.9
	c7.5-3.8,13.1-11.2,13.1-20.6c0-5.6-1.9-11.3-5.6-15C773,255.6,774.9,231.2,774.9,205L774.9,205z"/>
<path class="st1" d="M774.9,205c-200.6,519.4-639.4,526.9-750,496.9c0,24.4,16.9,46.9,52.5,60C83,769.4,90.5,775,99.9,775
	c5.6,0,9.4-1.9,13.1-3.8c15,1.9,31.9,3.8,50.6,3.8c26.3,0,56.3-3.8,84.4-7.5c3.8,5.6,11.3,7.5,18.8,7.5c11.3,0,20.6-7.5,24.4-16.9
	c31.9-9.4,65.6-20.6,97.5-33.8c3.8,1.9,7.5,1.9,11.3,1.9c11.2,0,22.5-7.5,24.4-18.8c20.6-9.4,41.3-22.5,60-33.8
	c3.8,3.8,9.4,3.8,15,3.8c13.1,0,24.4-11.3,24.4-24.4v-5.6c16.9-11.3,31.9-24.4,48.8-37.5c3.8,1.9,7.5,1.9,11.3,1.9
	c13.1,0,24.4-11.3,24.4-24.4c0-3.8,0-5.6-1.9-9.4c15-15,30-31.9,45-48.8c13.1,0,24.4-11.3,24.4-24.4v-5.6c15-22.5,30-45,43.1-67.5
	c13.1,0,24.4-11.3,24.4-24.4c0-5.6-1.9-11.3-5.6-15c11.2-24.4,18.7-50.6,26.2-76.9c7.5-3.8,13.1-11.2,13.1-20.6
	c0-5.6-1.9-11.3-5.6-15C773,255.6,774.9,231.2,774.9,205L774.9,205z"/>
<path class="st2" d="M662.4,175c11.3,0,18.7,7.5,18.7,18.8c0,11.3-9.4,18.8-18.7,18.8c-11.3,0-18.8-7.5-18.8-18.8
	C643.6,182.5,651.1,175,662.4,175z M624.9,381.3c11.3,0,18.8,7.5,18.8,18.7s-7.5,18.7-18.8,18.7c-11.2,0-18.7-7.5-18.7-18.8
	C606.1,388.7,613.6,381.2,624.9,381.3L624.9,381.3z M568.6,325c11.3,0,18.8,7.5,18.8,18.8c0,11.3-9.4,18.8-18.8,18.8
	c-11.2,0-18.7-7.5-18.7-18.8C549.9,332.5,557.4,325,568.6,325z M493.6,512.5c11.3,0,18.7,7.5,18.7,18.8s-7.5,18.7-18.7,18.7
	c-11.2,0-18.7-7.5-18.7-18.7S482.4,512.5,493.6,512.5z M418.6,531.3c11.3,0,18.7,7.5,18.7,18.7c0,11.3-7.5,18.8-18.7,18.8
	s-18.7-7.5-18.7-18.8C399.9,538.8,407.4,531.3,418.6,531.3z M306.1,625c11.3,0,18.8,7.5,18.8,18.8s-7.5,18.7-18.8,18.7
	c-11.3,0-18.8-7.5-18.8-18.7S294.9,625,306.1,625z M174.9,643.8c11.2,0,18.8,7.5,18.8,18.7c0,11.3-7.5,18.8-18.8,18.8
	s-18.8-7.5-18.8-18.8C156.1,651.3,163.6,643.8,174.9,643.8z"/>
</svg>
