<?xml version="1.0" encoding="utf-8"?>
<!-- Generator: Adobe Illustrator 24.0.0, SVG Export Plug-In . SVG Version: 6.00 Build 0)  -->
<svg version="1.1" id="Layer_1" xmlns="http://www.w3.org/2000/svg" xmlns:xlink="http://www.w3.org/1999/xlink" x="0px" y="0px"
	 viewBox="0 0 800 800" style="enable-background:new 0 0 800 800;" xml:space="preserve">
<style type="text/css">
	.st0{fill:#FFECB3;}
	.st1{fill:#FFB300;}
	.st2{fill:#4CAF50;}
	.st3{fill:#F57F17;}
</style>
<path class="st0" d="M650.8,650.5c175.5-175.5,175.5-459.9,0-635.5L17.3,650.5C192.8,826,475.3,826,650.8,650.5L650.8,650.5z"/>
<path class="st1" d="M479.3,479c94.8-94.8,111-240.1,28.2-316.7l-347,345C239.2,589.9,382.5,573.8,479.3,479L479.3,479z"/>
<path class="st2" d="M622.5,622.2c-159.4,159.4-417.6,159.4-577,0l-28.2,28.2c175.5,175.5,459.9,175.5,635.5,0s175.5-459.9,0-635.5
	l-28.2,28.2C781.9,204.6,781.9,462.8,622.5,622.2L622.5,622.2z"/>
<path class="st3" d="M434.9,406.4c8.1,8.1,28.2,58.5,28.2,58.5s-50.4-20.2-58.5-28.2s-8.1-20.2,0-28.2
	C414.7,398.3,426.8,398.3,434.9,406.4z M247.3,507.2c-8.1,8.1-8.1,20.2,0,28.2c8.1,8.1,42.4,14.1,42.4,14.1s-6.1-36.3-14.1-42.4
	C267.5,501.2,255.4,499.2,247.3,507.2z M507.5,247c-8.1,8.1-8.1,20.2,0,28.2s42.4,14.1,42.4,14.1s-6.1-36.3-14.1-42.4
	C527.7,238.9,515.6,238.9,507.5,247z M449,362c-8.1,8.1-8.1,20.2,0,28.2s58.5,28.2,58.5,28.2S487.4,368,479.3,360
	C471.2,353.9,457.1,353.9,449,362L449,362z M362.3,448.7c-8.1,8.1-8.1,20.2,0,28.2s58.5,28.2,58.5,28.2s-20.2-50.4-28.2-58.5
	C384.5,440.7,370.4,440.7,362.3,448.7L362.3,448.7z M305.8,479c-8.1,8.1-8.1,20.2,0,28.2s58.5,28.2,58.5,28.2S344.1,485,336.1,477
	C326,470.9,313.9,470.9,305.8,479z M479.3,305.5c-8.1,8.1-8.1,20.2,0,28.2s58.5,28.2,58.5,28.2s-20.2-50.4-28.2-58.5
	C499.5,297.4,485.4,297.4,479.3,305.5z M334.1,333.7c-8.1,8.1-8.1,20.2,0,28.2s58.5,28.2,58.5,28.2s-20.2-50.4-28.2-58.5
	C354.2,325.7,342.1,325.7,334.1,333.7z M291.7,376.1c-8.1,8.1-8.1,20.2,0,28.2s58.5,28.2,58.5,28.2s-20.2-50.4-28.2-58.5
	C311.9,370,297.7,370,291.7,376.1L291.7,376.1z M376.4,291.4c-8.1,8.1-8.1,20.2,0,28.2s58.5,28.2,58.5,28.2s-20.2-50.4-28.2-58.5
	C398.6,283.3,384.5,283.3,376.4,291.4L376.4,291.4z M420.8,247c-8.1,8.1-8.1,20.2,0,28.2s42.4,14.1,42.4,14.1S457.1,253,449,247
	C441,238.9,428.9,238.9,420.8,247z M449,218.7c8.1,8.1,42.4,14.1,42.4,14.1s-6.1-36.3-12.1-44.4L449,218.7L449,218.7z M247.3,420.5
	c-8.1,8.1-8.1,20.2,0,28.2s42.4,14.1,42.4,14.1s-6.1-36.3-14.1-42.4C267.5,412.4,255.4,412.4,247.3,420.5z M188.8,479
	c8.1,8.1,42.4,14.1,42.4,14.1s-6.1-36.3-14.1-42.4L188.8,479z"/>
</svg>
