<?xml version="1.0" encoding="utf-8"?>
<!-- Generator: Adobe Illustrator 24.0.0, SVG Export Plug-In . SVG Version: 6.00 Build 0)  -->
<svg version="1.1" id="Layer_1" xmlns="http://www.w3.org/2000/svg" xmlns:xlink="http://www.w3.org/1999/xlink" x="0px" y="0px"
	 viewBox="0 0 800 800" style="enable-background:new 0 0 800 800;" xml:space="preserve">
<style type="text/css">
	.st0{fill:#8BC34A;}
	.st1{fill:#7CB342;}
	.st2{fill:#558B2F;}
	.st3{fill:#F9A825;}
	.st4{fill:#C68632;}
</style>
<path class="st0" d="M505.1,297c4.9-35,17.1-62.8,31.4-88.6c14.3-25,31.7-48,51.8-68.6c20.1-20.6,42.7-38.6,67.4-53.3
	c25.4-14.8,53.1-27.5,88.1-33.1c-4.8,35-17,63-31.3,88.7c-14.3,25-31.7,48-51.9,68.5c-20.1,20.5-42.8,38.4-67.5,53.3
	C567.6,278.7,540,291.4,505.1,297L505.1,297z"/>
<path class="st1" d="M784.2,195.1c-21.6,28.1-46.1,46.4-71.4,61.9c-24.9,14.7-51.6,26.3-79.4,34.3c-27.8,8.1-56.5,12.6-85.4,13.4
	c-29.6,0.4-60.1-2.1-93.4-14.4c21.6-28.2,46-46.6,71.3-62c24.9-14.8,51.6-26.2,79.4-34.2c27.8-8,56.5-12.5,85.4-13.3
	C720.5,180.3,750.9,182.9,784.2,195.1L784.2,195.1z"/>
<path class="st1" d="M511.9,347.5c-12.7-33.3-15.7-64-15.7-94c0.4-29.8,4.6-58.6,12-86.5c7.5-28.2,18.6-55.4,33-80.8
	c15-25.8,33.1-50.9,60.9-73.2C615,46.4,618,77.1,618,107c-0.4,29.2-4.5,58.2-12.2,86.4c-7.6,28.2-18.7,55.3-33.1,80.8
	C557.6,300,539.6,325.1,511.9,347.5L511.9,347.5z"/>
<path class="st2" d="M784.2,316.4c-29.9,19.2-59.2,28.4-88.3,34.5c-29.1,5.7-57.9,7.5-86.6,5.9c-29-1.6-57.7-6.9-85.3-15.8
	c-28.2-9.4-56.2-22-83.6-44.7c29.9-19.4,59.2-28.6,88.3-34.6c29.1-5.7,58-7.5,86.6-5.7c28.7,1.7,57.1,6.9,85.3,16
	C728.8,281.3,756.8,293.8,784.2,316.4L784.2,316.4z"/>
<path class="st2" d="M501,13c19.2,28.3,28.4,55.9,34.5,83.4c5.7,27.4,7.5,54.6,5.8,81.6c-1.6,27.3-6.9,54.3-15.8,80.2
	c-9.5,26.5-22,52.8-44.7,78.4c-19.4-28.3-28.5-55.9-34.6-83.4c-5.7-27.4-7.5-54.6-5.7-81.6c1.7-27,6.9-53.7,16-80.2
	C465.9,65,478.4,38.7,501,13z"/>
<path class="st3" d="M507.4,634.3c48.2-48.2,75.1-117.7,75.9-188.4c0.4-36.7-26.4-112.5-57.3-144.7l-14.4-14.4l-18.1-18.1
	c0,0-48.9-53-136.6-53c-72.2,0-143.8,26.1-192.8,75.2l-73.3,73.2c-97.1,97.1-99,252.7-4.2,347.5c94.8,94.8,250.4,92.9,347.5-4.2
	L507.4,634.3z"/>
<path class="st4" d="M361,758.4L361,758.4c20-9.1,38.5-20.8,55.4-34.7c-16.3-3.2-32.8-5.3-49.5-6c-1.2-23.4-5.3-61.6-18.8-89.4
	c32,1.3,73.3,8,86.7,21.5c7.4,7.3,12.6,23.1,16.2,41l33.7-33.7c-1.8-5.4-4-10.8-6.5-15.9c6.6,0.3,13.7,0.8,20.8,1.6l8.4-8.4
	c8.8-8.8,16.8-18.2,24.1-28.3c-15.6-3-31.4-4.9-47.3-5.6c-1.2-23.4-5.3-61.6-18.9-89.4c32,1.4,73.2,8,86.7,21.5
	c4,4,7.3,10.5,10.1,18.3c21.5-52.9,26.6-111,14.7-166.9c-15.1-51.1-65.3-97.1-65.3-97.1c10.6,10.6,16.9,38.4,19.8,65.4
	c-25.1-8.3-54-11.3-73.1-12.2c-0.9-19-3.8-48-12.2-73.1c27,2.9,54.8,9.2,65.4,19.8c0,0-39.2-51.8-95.5-64.3
	c-56.1-12.3-114.7-7.5-168,13.8c7.6,2.8,14,6.1,17.9,9.9c13.5,13.5,20.1,54.8,21.5,86.7c-27.7-13.5-66-17.7-89.4-18.8
	c-0.8-15.9-2.7-31.7-5.6-47.3c-10.1,7.3-19.6,15.3-28.3,24.1l-8.4,8.4c0.8,7.1,1.3,14.1,1.6,20.8c-5.2-2.5-10.5-4.7-15.9-6.5
	l-33.7,33.7c17.9,3.5,33.7,8.8,41,16.2c13.5,13.5,20.1,54.7,21.5,86.7c-27.8-13.6-66-17.7-89.4-18.8C80,414.9,78,398.4,74.7,382
	C60.5,399.2,49,417.9,40,437.3v0.1c-5.9,12.6-10.7,25.8-14.3,39.2c2.1,1.3,4.3,2.7,5.8,4.2C45,494.3,51.6,535.5,53,567.5
	c-10.8-5.2-23.2-9-35.6-11.8c0.8,14.9,3.1,29.8,6.7,44.4c8.8,3,16.1,6.5,20.4,10.8c12,12,18.6,45.9,20.8,75.9
	c6.6,8.6,13.5,17.1,21.4,25c7.9,7.9,16.3,14.8,25,21.4c29.9,2.2,63.9,8.8,75.9,20.8c4.3,4.3,7.8,11.6,10.8,20.4
	c14.6,3.6,29.4,5.8,44.3,6.7c-2.8-12.5-6.5-24.8-11.8-35.6c32,1.3,73.2,8,86.7,21.5c1.5,1.5,2.9,3.6,4.2,5.8
	C335.1,769,348.2,764.2,361,758.4L361,758.4L361,758.4z M443.4,606.4c-27.7-13.6-66-17.7-89.4-18.9c-1.2-23.4-5.4-61.6-19-89.4
	c32,1.3,73.4,8,86.8,21.5C435.4,533,442.1,574.4,443.4,606.4z M313.3,593.5c-27.8-13.6-66-17.8-89.4-18.9
	c-1.2-23.4-5.4-61.6-18.9-89.4c32,1.3,73.3,8,86.8,21.5C305.2,520.1,311.9,561.5,313.3,593.5L313.3,593.5z M539.1,402.3
	c13.5,13.5,20.1,54.7,21.5,86.7c-27.8-13.6-66-17.6-89.4-18.8c-1.2-23.3-5.3-61.6-18.8-89.4C484.4,382.2,525.7,388.9,539.1,402.3z
	 M430.5,476.3c-27.7-13.6-66-17.8-89.3-19c-1.2-23.4-5.4-61.6-19-89.3c32,1.3,73.3,8,86.8,21.5C422.5,402.9,429.1,444.2,430.5,476.3
	z M309.3,237.8c32,1.3,73.3,8,86.8,21.5l0,0c13.5,13.5,20.1,54.8,21.5,86.8c-27.7-13.6-66-17.7-89.4-19
	C327,303.8,322.8,265.6,309.3,237.8z M192.1,355.1c32,1.3,73.3,8,86.7,21.5c13.5,13.5,20.1,54.7,21.5,86.7
	c-27.7-13.6-66-17.6-89.4-18.8C209.8,421.1,205.7,382.8,192.1,355.1L192.1,355.1z M74.9,472.3c32,1.3,73.3,8,86.7,21.5
	c13.5,13.5,20.1,54.7,21.5,86.7c-27.7-13.6-66-17.7-89.3-18.9C92.6,538.3,88.5,500,74.9,472.3L74.9,472.3z M106.7,691.8
	c-1.2-23.4-5.4-61.6-19-89.4c32,1.3,73.3,8,86.8,21.5c13.5,13.5,20.1,54.8,21.5,86.9C168.3,697.1,130.1,692.9,106.7,691.8z
	 M236.8,704.7c-1.2-23.4-5.4-61.6-19-89.3c32,1.3,73.4,8,86.8,21.5c13.5,13.5,20.1,54.8,21.5,86.9
	C298.4,710,260.2,705.9,236.8,704.7L236.8,704.7z"/>
</svg>
