<?xml version="1.0" encoding="utf-8"?>
<!-- Generator: Adobe Illustrator 24.0.0, SVG Export Plug-In . SVG Version: 6.00 Build 0)  -->
<svg version="1.1" id="Layer_1" xmlns="http://www.w3.org/2000/svg" xmlns:xlink="http://www.w3.org/1999/xlink" x="0px" y="0px"
	 viewBox="0 0 800 800" style="enable-background:new 0 0 800 800;" xml:space="preserve">
<style type="text/css">
	.st0{fill:#EEEEEE;}
	.st1{fill:#CCD6DD;}
	.st2{fill:#A0041E;}
	.st3{fill:#DD2E44;}
	.st4{fill:#EA596E;}
	.st5{fill:#292F33;}
	.st6{fill:#E1E8ED;}
	.st7{fill:#77B255;}
	.st8{fill:#F4900C;}
</style>
<path class="st0" d="M649.6,215.6c-8.1-4.7-18.7-6.9-33.4-6.9c-114.3,0-503.3,145.1-519.8,151.3c-3.6,1.4-6.8,3.7-9.1,6.8
	c-25.4,33.5-20.4,156.5,20.6,218c56.4,84.6,139.6,108.6,179.7,112.5c0.7,0.1,2.2,0.1,2.9,0.1c50.3,0,375.3-220.3,399.7-270.9
	C718.2,368.2,716.4,254.5,649.6,215.6L649.6,215.6z"/>
<path class="st1" d="M578.7,257.2c-81.9,61.4-266.1,184.3-266.1,184.3c-14.6,43.8-39.4,170.8-15.3,255
	c67.4-15.3,369.4-221.2,392.9-270c21.2-43.9,25.3-119.4-2.7-170.6C651.7,234.7,613.4,231.2,578.7,257.2z"/>
<path class="st2" d="M702,186c-4.6-4.4-11-6.3-17.3-5.3L83.2,279.6c-10.1,1.7-17.4,10.5-17.1,20.7c0.5,20.7,0.4,35.7,0.2,52.7
	c-0.1,9.4-0.2,19.4-0.2,31.2c0,6.1,2.7,11.9,7.4,15.8c41.6,34.5,178.4,126.1,209.5,141.6c7,3.5,15.4,2.7,21.6-2.1
	c52.3-40.3,337.5-203.3,382.1-222.6c6.9-3,11.6-9.5,12.2-16.9c2.6-28.1,9.4-97.1,9.4-97.1C709,196.6,706.6,190.3,702,186L702,186z"
	/>
<path class="st3" d="M703.3,187.3C662,140.4,506.2,73.2,479.8,72.1c-1.6-0.1-3.3,0-4.9,0.4C268.1,113.7,132.7,232.3,81.7,276.9
	l-8.5,7.4c-8.6,7.4-9.5,20.4-2,29c1,1.2,2.2,2.3,3.5,3.2c6.9,5,170.3,122,210,144.5c7.6,4.3,17.2,3.3,23.7-2.6
	C388.5,386.8,658.4,234,695.2,220c10.6-4,15.9-15.8,11.9-26.4C706.2,191.3,704.9,189.2,703.3,187.3L703.3,187.3z"/>
<path class="st4" d="M234.1,409c-10,0-18.5-7.2-20.1-17l-0.9-5.5c-8.1-47.3-17.4-100.8-34.2-152c-3.3-10.8,2.8-22.3,13.6-25.5
	c10.5-3.2,21.6,2.4,25.3,12.8c17.7,54,27.2,109.2,35.6,157.8l0.9,5.4c1.9,11.1-5.5,21.7-16.6,23.7C236.5,408.9,235.3,409,234.1,409z
	 M357.8,403.9c-10.9,0-19.9-8.6-20.4-19.4c-1.6-31.5-24.3-163.2-44.8-219.2c-3.9-10.6,1.5-22.4,12.1-26.3
	c10.6-3.9,22.4,1.5,26.3,12.1c21.8,59.3,45.4,193.2,47.3,231.2c0.6,11.3-8.1,20.9-19.4,21.5C358.5,403.9,358.2,403.9,357.8,403.9
	L357.8,403.9z M473,326.3c-10.1,0-18.7-7.4-20.2-17.4l-2.3-16.1c-6-42.2-17.2-120.7-34.4-172.4c-3.7-10.7,1.9-22.3,12.6-26.1
	c10.7-3.7,22.3,1.9,26.1,12.6c0.1,0.2,0.1,0.3,0.2,0.5c18.4,55.2,29.9,136.1,36.1,179.6l2.3,15.8c1.7,11.2-6,21.6-17.2,23.3
	C475,326.2,474,326.3,473,326.3L473,326.3z M589,256.3c-10.5,0-19.3-8-20.3-18.4c-3.8-38.1-9.7-65.9-20.2-95.9
	c-3.9-10.6,1.5-22.4,12.1-26.3c10.6-3.9,22.4,1.5,26.3,12.1c0.1,0.2,0.1,0.4,0.2,0.5c11.6,32.8,18.3,64.4,22.4,105.4
	c1.1,11.3-7.1,21.3-18.3,22.4C590.3,256.3,589.7,256.3,589,256.3z"/>
<path class="st5" d="M704.4,523.3c-35.1-25.3-83-40.9-135.9-40.9c-52.8,0-100.8,15.7-135.9,40.9H374v102.4
	c0,79,87.3,143.3,194.5,143.3S763,704.7,763,625.7V523.3H704.4z"/>
<ellipse class="st5" cx="568.5" cy="523.3" rx="194.5" ry="143.3"/>
<g>
	<path class="st6" d="M713.5,523.3c0,56.5-64.9,102.4-145,102.4s-145-45.8-145-102.4S488.4,421,568.5,421S713.5,466.8,713.5,523.3z"
		/>
	<path class="st6" d="M568.5,642.7c-89.4,0-162.1-53.6-162.1-119.4s72.7-119.4,162.1-119.4s162.1,53.6,162.1,119.4
		S657.9,642.7,568.5,642.7z M568.5,438c-70.5,0-128,38.3-128,85.3c0,47,57.4,85.3,128,85.3s128-38.3,128-85.3
		C696.5,476.3,639.1,438,568.5,438z"/>
</g>
<g>
	<path class="st7" d="M480.7,514c0-8.6,37-6.9,87.8-6.9c50.9,0,86.2-11.2,86.2-2.5c0,36.3-35.3,72.7-86.2,72.7
		C517.6,577.3,480.7,550.3,480.7,514z"/>
	<path class="st7" d="M568.5,587.5c-56.8,0-98.1-30.9-98.1-73.6c0-3.5,1.4-6.9,4-9.4c7.7-7.7,24.5-8,71.7-7.7l22.4,0.1
		c22.4,0,42.1-2.3,56.4-3.9c20.3-2.3,29.5-3.4,35.7,2.1l3.4,3.1l0.8,6.4C664.9,544.4,628,587.5,568.5,587.5L568.5,587.5z
		 M491.2,518.8c3.2,28.3,34.7,48.3,77.3,48.3c41.9,0,71.1-27.5,75.4-55.4c-4.5,0.3-10.8,1-16.6,1.7c-14.9,1.7-35.2,4.1-58.8,4.1
		l-22.5-0.1C524.5,517.1,500.6,517,491.2,518.8z"/>
</g>
<g>
	<path class="st8" d="M660.6,502.9c0,0-40.9-20.5-102.4,0c-48.3,16.1-81.9,52.4-81.9,16.1c0-36.3,41.3-65.8,92.1-65.8
		C619.4,453.1,660.6,482.4,660.6,502.9z"/>
	<path class="st8" d="M485.5,544.8c-3.4,0-6.7-0.9-9.6-2.6c-9.8-5.9-9.8-19-9.8-23.3c0-41.9,45.9-76,102.4-76
		c56.7,0,102.4,32.8,102.4,59.9c0,3.5-1.8,6.8-4.9,8.7c-3,1.8-6.7,2-9.9,0.5c-0.7-0.3-38.6-18.1-94.6,0.5
		c-15.5,5.2-29.4,12.5-41.6,19C506,538.9,494.8,544.8,485.5,544.8L485.5,544.8z M568.5,463.4c-45.2,0-81.9,24.9-81.9,55.5
		c0,2.6,0.2,4.3,0.4,5.3c4.7-0.9,15.3-6.5,23.3-10.7c12.3-6.5,27.6-14.6,44.7-20.3c34.7-11.6,63.4-10.8,82.8-7.5
		C624,474.5,599.5,463.4,568.5,463.4L568.5,463.4z"/>
</g>
</svg>
